<svg width="26" height="26" viewBox="0 0 26 26" fill="none" xmlns="http://www.w3.org/2000/svg">
<path d="M16.0629 1.07348L14.6523 2.37794C13.5981 3.35322 11.9881 3.33418 10.9551 2.33577L9.57375 1.00002C7.84012 1.82976 7.75238 1.87193 6.01875 2.70167L6.13574 4.64271C6.22349 6.09408 5.20511 7.36997 3.79853 7.574L1.916 7.84605C1.4693 9.75037 1.4467 9.84695 1 11.7513L2.55681 12.868C3.7201 13.7032 4.06044 15.3123 3.33987 16.5651L2.37467 18.2409C3.55125 19.7848 3.61108 19.8637 4.78766 21.4075L6.61169 20.8594C7.9744 20.4486 9.41688 21.1804 9.92473 22.5379L10.6028 24.3551C12.5159 24.3769 12.6142 24.3783 14.5274 24.4L15.2453 22.5991C15.7824 21.2525 17.2395 20.5547 18.5942 20.9954L20.4049 21.5857C21.6148 20.0691 21.6759 19.9915 22.8857 18.4749L21.9564 16.7773C21.2625 15.5082 21.6374 13.9072 22.8193 13.0993L24.4 12.0179C23.9945 10.104 23.9746 10.0075 23.5691 8.09361L21.6932 7.77804C20.2906 7.54272 19.3015 6.2437 19.4198 4.79506L19.5793 2.85674C17.8643 1.98755 17.7779 1.94402 16.0629 1.07484V1.07348Z" stroke="#6094F8" stroke-width="2" stroke-linecap="round" stroke-linejoin="round"/>
<path d="M12.7033 8.55881C15.0529 8.55881 16.9576 10.5076 16.9576 12.9115C16.9576 15.3155 15.0529 17.2643 12.7033 17.2643C10.3537 17.2643 8.44902 15.3155 8.44902 12.9115C8.44902 10.5076 10.3537 8.55881 12.7033 8.55881Z" stroke="#6094F8" stroke-width="2" stroke-linecap="round" stroke-linejoin="round"/>
</svg>
