<svg width="10" height="10" viewBox="0 0 10 10" fill="none" xmlns="http://www.w3.org/2000/svg">
<g opacity="0.5">
<path fill-rule="evenodd" clip-rule="evenodd" d="M8.07311 1.65771C8.2834 1.86799 8.2834 2.20893 8.07311 2.41921L5.38081 5.11152C5.17052 5.3218 4.82959 5.3218 4.61931 5.11152L1.927 2.41921C1.71672 2.20893 1.71672 1.86799 1.927 1.65771C2.13728 1.44743 2.47822 1.44743 2.6885 1.65771L5.00006 3.96927L7.31161 1.65771C7.5219 1.44743 7.86283 1.44743 8.07311 1.65771ZM8.07311 4.88848C8.2834 5.09876 8.2834 5.4397 8.07311 5.64998L5.38081 8.34229C5.17052 8.55257 4.82959 8.55257 4.61931 8.34229L1.927 5.64998C1.71672 5.4397 1.71672 5.09876 1.927 4.88848C2.13728 4.6782 2.47822 4.6782 2.6885 4.88848L5.00006 7.20004L7.31161 4.88848C7.5219 4.6782 7.86283 4.6782 8.07311 4.88848Z" fill="#6094F8"/>
</g>
</svg>
