<svg width="20" height="20" viewBox="0 0 20 20" fill="none" xmlns="http://www.w3.org/2000/svg">
<path d="M18.25 6.25C18.25 4.96029 17.2618 3.89137 15.9863 3.7627L15.7275 3.75H4.27246C2.87438 3.75014 1.75 4.87429 1.75 6.25V12.75C1.75 14.1257 2.87438 15.2499 4.27246 15.25H15.7275C17.1256 15.2499 18.25 14.1257 18.25 12.75V6.25ZM15.293 5.63867C15.6308 5.39905 16.0992 5.47854 16.3389 5.81641C16.5784 6.1542 16.4988 6.62169 16.1611 6.86133L12.3359 9.57422C10.9378 10.566 9.06224 10.566 7.66406 9.57422L3.83887 6.86133C3.5012 6.62169 3.42165 6.1542 3.66113 5.81641C3.90075 5.47854 4.36916 5.39905 4.70703 5.63867L8.53125 8.35059C9.40964 8.97365 10.5904 8.97365 11.4688 8.35059L15.293 5.63867ZM19.75 12.75C19.75 14.964 17.9442 16.7499 15.7275 16.75H4.27246C2.05583 16.7499 0.25 14.964 0.25 12.75V6.25C0.25 4.03603 2.05583 2.25014 4.27246 2.25H15.7275L15.9336 2.25488C18.055 2.3616 19.75 4.10504 19.75 6.25V12.75Z" fill="#6094F8"/>
</svg>
