<svg width="16" height="11" viewBox="0 0 16 11" fill="none" xmlns="http://www.w3.org/2000/svg">
<path fill-rule="evenodd" clip-rule="evenodd" d="M0 0.666667C0 0.298477 0.298477 0 0.666667 0H15.3333C15.7015 0 16 0.298477 16 0.666667C16 1.03486 15.7015 1.33333 15.3333 1.33333H0.666667C0.298477 1.33333 0 1.03486 0 0.666667ZM0 5.33333C0 4.96514 0.298477 4.66667 0.666667 4.66667H15.3333C15.7015 4.66667 16 4.96514 16 5.33333C16 5.70152 15.7015 6 15.3333 6H0.666667C0.298477 6 0 5.70152 0 5.33333ZM0 10C0 9.63181 0.298477 9.33333 0.666667 9.33333H15.3333C15.7015 9.33333 16 9.63181 16 10C16 10.3682 15.7015 10.6667 15.3333 10.6667H0.666667C0.298477 10.6667 0 10.3682 0 10Z" fill="white"/>
</svg>
