<svg width="183" height="373" viewBox="0 0 183 373" fill="none" xmlns="http://www.w3.org/2000/svg">
<g opacity="0.5">
<path fill-rule="evenodd" clip-rule="evenodd" d="M-1.63483 208.374C25.4349 208.374 50.0241 218.961 69.0053 236.568L-1.63483 268.867L-72.2749 236.568C-53.3477 218.961 -28.7045 208.374 -1.63483 208.374Z" fill="#1955A6"/>
<path fill-rule="evenodd" clip-rule="evenodd" d="M-1.63483 312.508C25.4349 312.508 50.0241 323.094 69.0053 340.701L-1.63483 373L-72.2749 340.701C-53.3477 323.094 -28.7045 312.508 -1.63483 312.508Z" fill="#1955A6"/>
<path fill-rule="evenodd" clip-rule="evenodd" d="M-115.36 260.279C-88.2902 260.279 -63.701 270.973 -44.7199 288.473L-115.36 320.771L-186 288.473C-167.181 271.027 -142.43 260.279 -115.36 260.279Z" fill="#1955A6"/>
<path fill-rule="evenodd" clip-rule="evenodd" d="M112.198 260.279C139.268 260.279 164.019 270.973 182.946 288.473L112.198 320.771L41.5581 288.473C60.4853 271.027 85.1284 260.279 112.198 260.279Z" fill="#1955A6"/>
<path fill-rule="evenodd" clip-rule="evenodd" d="M-1.63483 0C25.4349 0 50.0241 10.5862 69.0053 28.1937L-1.63483 60.4923L-72.2749 28.1937C-53.3477 10.5862 -28.7045 0 -1.63483 0Z" fill="#1955A6"/>
<path fill-rule="evenodd" clip-rule="evenodd" d="M-1.63483 104.133C25.4349 104.133 50.0241 114.719 69.0053 132.327L-1.63483 164.626L-72.2749 132.327C-53.3477 114.719 -28.7045 104.133 -1.63483 104.133Z" fill="#1955A6"/>
<path fill-rule="evenodd" clip-rule="evenodd" d="M-115.36 51.9046C-88.2902 51.9046 -63.701 62.5988 -44.7199 80.0983L-115.36 112.397L-186 80.0983C-167.181 62.6528 -142.43 51.9046 -115.36 51.9046Z" fill="#1955A6"/>
<path fill-rule="evenodd" clip-rule="evenodd" d="M112.198 51.9046C139.268 51.9046 164.019 62.5988 182.946 80.0983L112.198 112.397L41.5581 80.0983C60.4853 62.6528 85.1284 51.9046 112.198 51.9046Z" fill="#1955A6"/>
<path fill-rule="evenodd" clip-rule="evenodd" d="M-44.7738 184.502L-115.36 216.8L-186 184.502H-44.7738Z" fill="#1955A6"/>
<path fill-rule="evenodd" clip-rule="evenodd" d="M-115.36 156.308C-88.452 156.308 -63.701 166.894 -44.7199 184.502H-186C-167.181 166.894 -142.43 156.308 -115.36 156.308Z" fill="#1955A6"/>
<path fill-rule="evenodd" clip-rule="evenodd" d="M182.838 184.502H183L112.198 216.8L41.612 184.502H182.838Z" fill="#1955A6"/>
<path fill-rule="evenodd" clip-rule="evenodd" d="M112.198 156.308C139.268 156.308 164.019 166.894 182.838 184.502H41.612C60.5392 166.894 85.3441 156.308 112.252 156.308H112.198Z" fill="#1955A6"/>
</g>
</svg>
