<svg width="48" height="48" viewBox="0 0 48 48" fill="none" xmlns="http://www.w3.org/2000/svg">
<path d="M23.9499 16.6175C26.3222 16.6175 26.6457 16.6175 27.6162 16.6175C28.4789 16.6175 28.9102 16.8331 29.2337 16.941C29.665 17.1566 29.9885 17.2645 30.312 17.588C30.6355 17.9114 30.8511 18.2349 30.959 18.6663C31.0668 18.9898 31.1746 19.4211 31.2825 20.2837C31.2825 21.2542 31.2825 21.4699 31.2825 23.95C31.2825 26.4301 31.2825 26.6458 31.2825 27.6163C31.2825 28.4789 31.0668 28.9102 30.959 29.2337C30.7433 29.6651 30.6355 29.9886 30.312 30.312C29.9885 30.6355 29.665 30.8512 29.2337 30.959C28.9102 31.0669 28.4789 31.1747 27.6162 31.2825C26.6457 31.2825 26.4301 31.2825 23.9499 31.2825C21.4698 31.2825 21.2542 31.2825 20.2837 31.2825C19.421 31.2825 18.9897 31.0669 18.6662 30.959C18.2349 30.7434 17.9114 30.6355 17.5879 30.312C17.2644 29.9886 17.0487 29.6651 16.9409 29.2337C16.8331 28.9102 16.7252 28.4789 16.6174 27.6163C16.6174 26.6458 16.6174 26.4301 16.6174 23.95C16.6174 21.4699 16.6174 21.2542 16.6174 20.2837C16.6174 19.4211 16.8331 18.9898 16.9409 18.6663C17.1566 18.2349 17.2644 17.9114 17.5879 17.588C17.9114 17.2645 18.2349 17.0488 18.6662 16.941C18.9897 16.8331 19.421 16.7253 20.2837 16.6175C21.2542 16.6175 21.5777 16.6175 23.9499 16.6175ZM23.9499 15C21.4698 15 21.2542 15 20.2837 15C19.3132 15 18.6662 15.2157 18.127 15.4313C17.5879 15.647 17.0487 15.9705 16.5096 16.5096C15.9704 17.0488 15.7548 17.4801 15.4313 18.1271C15.2156 18.6663 15.1078 19.3133 14.9999 20.2837C14.9999 21.2542 14.9999 21.5777 14.9999 23.95C14.9999 26.4301 14.9999 26.6458 14.9999 27.6163C14.9999 28.5867 15.2156 29.2337 15.4313 29.7729C15.6469 30.312 15.9704 30.8512 16.5096 31.3904C17.0487 31.9295 17.4801 32.1452 18.127 32.4687C18.6662 32.6843 19.3132 32.7922 20.2837 32.9C21.2542 32.9 21.5777 32.9 23.9499 32.9C26.3222 32.9 26.6457 32.9 27.6162 32.9C28.5867 32.9 29.2337 32.6843 29.7728 32.4687C30.312 32.253 30.8511 31.9295 31.3903 31.3904C31.9295 30.8512 32.1451 30.4199 32.4686 29.7729C32.6843 29.2337 32.7921 28.5867 32.8999 27.6163C32.8999 26.6458 32.8999 26.3223 32.8999 23.95C32.8999 21.5777 32.8999 21.2542 32.8999 20.2837C32.8999 19.3133 32.6843 18.6663 32.4686 18.1271C32.253 17.588 31.9295 17.0488 31.3903 16.5096C30.8511 15.9705 30.4198 15.7548 29.7728 15.4313C29.2337 15.2157 28.5867 15.1078 27.6162 15C26.6457 15 26.4301 15 23.9499 15Z" fill="white"/>
<path d="M23.9499 19.3133C21.362 19.3133 19.3132 21.362 19.3132 23.95C19.3132 26.538 21.362 28.5867 23.9499 28.5867C26.5379 28.5867 28.5867 26.538 28.5867 23.95C28.5867 21.362 26.5379 19.3133 23.9499 19.3133ZM23.9499 26.9693C22.3325 26.9693 20.9307 25.6753 20.9307 23.95C20.9307 22.3325 22.2246 20.9307 23.9499 20.9307C25.5674 20.9307 26.9692 22.2247 26.9692 23.95C26.9692 25.5675 25.5674 26.9693 23.9499 26.9693Z" fill="white"/>
<path d="M28.6945 20.2837C29.2901 20.2837 29.7728 19.801 29.7728 19.2054C29.7728 18.6099 29.2901 18.1271 28.6945 18.1271C28.099 18.1271 27.6162 18.6099 27.6162 19.2054C27.6162 19.801 28.099 20.2837 28.6945 20.2837Z" fill="white"/>
</svg>
