<svg width="80" height="36" viewBox="0 0 80 36" fill="none" xmlns="http://www.w3.org/2000/svg">
<g opacity="0.5">
<path d="M21.9259 18.456H16.3183C16.3821 19.048 17.0775 19.4148 17.7409 19.4148C18.3151 19.4921 18.8956 19.3183 19.3358 18.9387L21.7026 20.1484C20.9754 21.3454 19.5017 22.1112 17.6453 22.1112C15.221 22.1112 12.9244 20.5603 12.9244 17.5873C12.9244 14.8073 14.9977 13.0634 17.5623 13.0634C20.1269 13.0634 21.9514 15.0132 21.9514 17.6645C21.9514 17.9348 21.9323 18.2565 21.9196 18.4496L21.9259 18.456ZM18.8063 16.474C18.7808 15.882 18.2832 15.4187 17.6963 15.4444C17.6644 15.4444 17.6325 15.4444 17.6006 15.4508C16.969 15.4122 16.4076 15.8498 16.2864 16.474H18.8063Z" fill="white"/>
<path d="M30.2141 15.9202C31.4326 16.1712 32.3066 17.2458 32.3193 18.4942C32.3193 20.9717 30.1503 21.8019 27.9621 21.8019H22.8776V10.489H27.4836C29.3018 10.489 31.8536 10.8751 31.8536 13.4941C31.8919 14.5688 31.2157 15.5405 30.2077 15.8751V15.9202H30.2141ZM26.3991 13.4427V14.8327H27.4135C27.9366 14.8327 28.313 14.5946 28.313 14.0797C28.313 13.6486 27.9174 13.4427 27.3305 13.4427H26.3991ZM26.3991 18.8095H27.5219C28.1088 18.8095 28.5171 18.5393 28.5171 18.0245C28.5171 17.4196 27.8218 17.2716 27.3624 17.2716H26.3991V18.8095Z" fill="white"/>
<path d="M33.1226 10.4892H37.9519C40.172 10.4892 42.4814 11.2872 42.4814 14.1637C42.5069 15.4893 41.7286 16.6991 40.5165 17.2139L43.3682 21.7957H39.0301L36.8738 17.7544H36.7654V21.7957H34.054L34.4432 16.3259L33.1226 10.4828V10.4892ZM36.7335 15.2641H37.4799C38.003 15.2641 38.794 15.1354 38.794 14.3245C38.794 13.5137 38.1114 13.4494 37.6393 13.4494H36.7335V15.2705V15.2641Z" fill="white"/>
<path d="M47.7509 10.4892H51.7573L56.1273 21.8021H52.0252L51.4383 20.1419H47.8785L47.3235 21.8021H43.3299L47.7509 10.4892ZM47.987 9.59473L49.7414 7.2974H53.097L50.66 9.59473H47.987ZM49.6967 14.4339L48.778 17.2268H50.6026L49.6967 14.4339Z" fill="white"/>
<path d="M56.6063 10.4889H60.3574L63.5536 16.2226H63.6174L63.4579 10.4889H67.0368V21.8018H63.19L60.0895 16.4028H60.0257L60.1852 21.8018H56.6063V10.4889Z" fill="white"/>
<path d="M71.6236 10.4889H75.63L80 21.7953H75.898L75.311 20.1351H71.7512L71.1962 21.7953H67.2026L71.6236 10.4889ZM73.5694 14.4336L72.6508 17.2264H74.4753L73.5694 14.4336Z" fill="white"/>
<path d="M17.4481 35.2C7.80857 35.2 0 27.317 0 17.6C0 7.883 7.80857 0 17.4481 0C27.0876 0 34.8961 7.87656 34.8961 17.5936C34.8898 27.3106 27.0812 35.1807 17.4481 35.1936V35.2ZM17.4481 1.44146C8.59963 1.44146 1.42264 8.67452 1.42264 17.6C1.42264 26.5255 8.59325 33.7585 17.4417 33.7585C26.2901 33.7585 33.4607 26.5255 33.4607 17.6C33.448 8.67452 26.2837 1.4479 17.4417 1.43503L17.4481 1.44146Z" fill="white"/>
</g>
</svg>
