<svg width="69" height="70" viewBox="0 0 69 70" fill="none" xmlns="http://www.w3.org/2000/svg">
<path fill-rule="evenodd" clip-rule="evenodd" d="M34.4748 39.1051C39.5366 39.1051 44.1346 41.0918 47.6839 44.3962L34.4748 50.4576L21.2657 44.3962C24.8049 41.0918 29.413 39.1051 34.4748 39.1051Z" fill="#1955A6"/>
<path fill-rule="evenodd" clip-rule="evenodd" d="M34.4748 58.6476C39.5366 58.6476 44.1346 60.6342 47.6839 63.9386L34.4748 70L21.2657 63.9386C24.8049 60.6342 29.413 58.6476 34.4748 58.6476Z" fill="#1955A6"/>
<path fill-rule="evenodd" clip-rule="evenodd" d="M13.2091 48.8459C18.2709 48.8459 22.8689 50.8529 26.4182 54.137L13.2091 60.1984L0 54.137C3.51907 50.863 8.1473 48.8459 13.2091 48.8459Z" fill="#1955A6"/>
<path fill-rule="evenodd" clip-rule="evenodd" d="M55.7606 48.8459C60.8224 48.8459 65.4507 50.8529 68.9899 54.137L55.7606 60.1984L42.5515 54.137C46.0907 50.863 50.6988 48.8459 55.7606 48.8459Z" fill="#1955A6"/>
<path fill-rule="evenodd" clip-rule="evenodd" d="M34.4748 0C39.5366 0 44.1346 1.98668 47.6839 5.29105L34.4748 11.3524L21.2657 5.29105C24.8049 1.98668 29.413 0 34.4748 0Z" fill="#1955A6"/>
<path fill-rule="evenodd" clip-rule="evenodd" d="M34.4748 19.5424C39.5366 19.5424 44.1346 21.5291 47.6839 24.8335L34.4748 30.8949L21.2657 24.8335C24.8049 21.5291 29.413 19.5424 34.4748 19.5424Z" fill="#1955A6"/>
<path fill-rule="evenodd" clip-rule="evenodd" d="M13.2091 9.74081C18.2709 9.74081 22.8689 11.7478 26.4182 15.0319L13.2091 21.0933L0 15.0319C3.51907 11.7579 8.1473 9.74081 13.2091 9.74081Z" fill="#1955A6"/>
<path fill-rule="evenodd" clip-rule="evenodd" d="M55.7606 9.74081C60.8224 9.74081 65.4507 11.7478 68.9899 15.0319L55.7606 21.0933L42.5515 15.0319C46.0907 11.7579 50.6988 9.74081 55.7606 9.74081Z" fill="#1955A6"/>
<path fill-rule="evenodd" clip-rule="evenodd" d="M26.4082 34.625L13.2091 40.6864L0 34.625H26.4082Z" fill="#1955A6"/>
<path fill-rule="evenodd" clip-rule="evenodd" d="M13.2091 29.3339C18.2407 29.3339 22.8689 31.3206 26.4182 34.625H0C3.51907 31.3206 8.1473 29.3339 13.2091 29.3339Z" fill="#1955A6"/>
<path fill-rule="evenodd" clip-rule="evenodd" d="M68.9697 34.625H69L55.7606 40.6864L42.5616 34.625H68.9697Z" fill="#1955A6"/>
<path fill-rule="evenodd" clip-rule="evenodd" d="M55.7606 29.3339C60.8224 29.3339 65.4507 31.3206 68.9697 34.625H42.5616C46.1008 31.3206 50.7391 29.3339 55.7707 29.3339H55.7606Z" fill="#1955A6"/>
</svg>
