<svg width="260" height="52" viewBox="0 0 260 52" fill="none" xmlns="http://www.w3.org/2000/svg">
<g clip-path="url(#clip0_116_297)">
<g clip-path="url(#clip1_116_297)">
<path fill-rule="evenodd" clip-rule="evenodd" d="M54.9547 24.5457L45.5273 28.8426L36.1143 24.5457H24.6031L15.1901 28.8426L5.77714 24.5457H0V51.5559H260V24.5457H54.9547ZM30.3515 27.7216C33.9587 27.7216 37.2352 29.13 39.7645 31.4725L30.3515 35.7694L20.9385 31.4725C23.4606 29.13 26.7444 27.7216 30.3515 27.7216ZM5.78433 38.3706C8.29206 36.0496 11.5902 34.6197 15.1973 34.6197C18.8044 34.6197 22.081 36.0424 24.6103 38.3706L15.1973 42.6675L5.78433 38.3706ZM30.3515 49.6159L20.9385 45.3189C23.4606 42.9765 26.7444 41.5681 30.3515 41.5681C33.9587 41.5681 37.2352 42.9765 39.7645 45.3189L30.3515 49.6159ZM45.5201 42.6747L36.1071 38.3777C38.6364 36.0568 41.913 34.6269 45.5201 34.6269C49.1272 34.6269 52.4254 36.0496 54.9475 38.3777L45.5201 42.6747ZM84.6883 47.5824L82.3242 34.9574L76.583 48.3225L70.7987 34.9574L68.4562 47.5824H66.3006L70.0658 28.2534L76.583 43.6303L83.0787 28.2534L86.8439 47.5824H84.6883ZM102.961 30.9982H95.3875V36.3371H102.961V38.3921H95.3875V45.5201H102.961V47.5752H93.1672V28.9791H102.961V30.9982ZM120.889 31.0845H115.651V47.5824H113.43V31.0845H108.178V28.9863H120.889V31.0845ZM136.855 47.5824L134.433 41.8771H127.183L124.762 47.5824H122.362L130.798 28.2534L139.248 47.5824H136.862H136.855ZM153.863 47.5824H144.615V28.9863H146.836V45.4626H153.863V47.5824Z" fill="white"/>
<path fill-rule="evenodd" clip-rule="evenodd" d="M127.83 39.9801H133.736L130.783 33.1395L127.83 39.9801Z" fill="white"/>
<path fill-rule="evenodd" clip-rule="evenodd" d="M71.431 19.796V2.7736H66.3006V1.17842H78.2357V2.76642H73.1268V19.796H71.4382H71.431ZM83.0859 19.796V1.17842H92.2905V2.76642H84.7745V8.59385H92.2905V10.1818H84.7745V18.208H92.2905V19.796H83.0859ZM113.387 4.6059C112.453 3.80831 111.512 3.2191 110.556 2.83108C109.579 2.44307 108.558 2.26343 107.502 2.26343C105.102 2.26343 103.141 3.01791 101.639 4.54123C100.137 6.06456 99.3754 8.04776 99.3754 10.5124C99.3754 11.7339 99.5622 12.8333 99.9287 13.8105C100.317 14.8093 100.863 15.6859 101.617 16.4404C102.372 17.1733 103.227 17.741 104.183 18.129C105.138 18.5386 106.18 18.7182 107.279 18.7182C108.379 18.7182 109.378 18.5314 110.398 18.1649C111.418 17.7985 112.374 17.2667 113.272 16.5554V18.5314C112.374 19.099 111.397 19.5302 110.376 19.832C109.356 20.1194 108.343 20.2775 107.344 20.2775C106 20.2775 104.714 20.0332 103.493 19.5445C102.25 19.0775 101.215 18.3805 100.317 17.5111C99.4185 16.6129 98.7287 15.5782 98.2617 14.3925C97.8162 13.2141 97.5718 11.9064 97.5718 10.5052C97.5718 9.10402 97.8162 7.81782 98.2832 6.61784C98.7718 5.41786 99.4616 4.37597 100.36 3.49934C101.215 2.64426 102.271 1.96883 103.514 1.50177C104.736 1.01315 106.022 0.768847 107.344 0.768847C108.544 0.768847 109.622 0.934114 110.642 1.25746C111.663 1.58081 112.575 2.06942 113.416 2.7233L113.394 4.59872L113.387 4.6059ZM119.071 19.796V1.17842H120.759V8.73756H130.884V1.17842H132.572V19.796H130.884V10.1818H120.759V19.796H119.071ZM139.219 19.796V0.409573L152.376 15.9734V1.17842H153.964V20.3278L140.807 4.74243V19.796H139.219ZM169.671 18.7829C170.792 18.7829 171.827 18.5817 172.811 18.1721C173.796 17.7625 174.687 17.1733 175.463 16.3829C176.239 15.6069 176.828 14.7159 177.237 13.7171C177.647 12.6968 177.848 11.6405 177.848 10.5411C177.848 9.44174 177.647 8.36392 177.237 7.36513C176.849 6.36635 176.239 5.48972 175.463 4.67776C174.687 3.90172 173.81 3.31251 172.833 2.90294C171.834 2.49337 170.799 2.29217 169.678 2.29217C168.557 2.29217 167.559 2.49337 166.581 2.90294C165.604 3.31251 164.728 3.90172 163.93 4.67776C163.154 5.48972 162.565 6.38791 162.155 7.36513C161.746 8.36392 161.544 9.42019 161.544 10.5411C161.544 11.6621 161.746 12.7183 162.155 13.7171C162.565 14.6943 163.154 15.5925 163.93 16.3829C164.706 17.1733 165.583 17.7697 166.538 18.1721C167.515 18.5817 168.557 18.7829 169.678 18.7829H169.671ZM179.652 10.5339C179.652 11.8345 179.386 13.0776 178.897 14.2848C178.387 15.4488 177.676 16.5051 176.742 17.4392C175.786 18.3589 174.708 19.0703 173.501 19.5589C172.294 20.0475 171.015 20.2918 169.671 20.2918C168.327 20.2918 167.084 20.0475 165.884 19.5589C164.684 19.0703 163.607 18.3589 162.644 17.4392C161.71 16.4835 160.977 15.4201 160.488 14.2632C159.999 13.0848 159.755 11.8417 159.755 10.5339C159.755 9.22618 159.999 7.94716 160.488 6.76874C160.977 5.59032 161.71 4.52686 162.644 3.59275C163.578 2.673 164.641 1.96164 165.841 1.49458C167.041 1.02753 168.306 0.783218 169.671 0.783218C171.036 0.783218 172.337 1.02753 173.544 1.49458C174.744 1.9832 175.808 2.673 176.742 3.59275C177.676 4.52686 178.409 5.59032 178.897 6.76874C179.386 7.94716 179.652 9.21181 179.652 10.5339ZM187.29 19.796V2.7736H182.181V1.17842H194.116V2.76642H188.986V19.796H187.297H187.29ZM200.626 2.66582V9.52797H202.336C203.903 9.52797 205.002 9.28366 205.635 8.77349C206.245 8.28488 206.554 7.4298 206.554 6.20827C206.554 4.92206 206.245 4.03106 205.599 3.47778C204.952 2.9245 203.867 2.66582 202.336 2.66582H200.626ZM210.219 19.796H208.164L201.647 10.9148H200.626V19.796H198.938V1.17842H202.358C204.377 1.17842 205.879 1.60955 206.878 2.44307C207.876 3.27659 208.387 4.56279 208.387 6.25138C208.387 7.69567 207.955 8.83816 207.086 9.67168C206.231 10.5052 205.053 10.9148 203.565 10.9148L210.226 19.796H210.219ZM223.749 18.7829C224.849 18.7829 225.89 18.5817 226.868 18.1721C227.866 17.7625 228.743 17.1733 229.534 16.3829C230.324 15.5925 230.899 14.7159 231.308 13.7171C231.718 12.6968 231.919 11.6405 231.919 10.5411C231.919 9.44174 231.718 8.36392 231.308 7.36513C230.899 6.36635 230.31 5.48972 229.534 4.67776C228.757 3.90172 227.881 3.31251 226.882 2.90294C225.905 2.49337 224.849 2.29217 223.742 2.29217C222.635 2.29217 221.601 2.49337 220.623 2.90294C219.646 3.31251 218.77 3.90172 217.994 4.67776C217.196 5.48972 216.607 6.38791 216.204 7.36513C215.795 8.36392 215.594 9.42019 215.594 10.5411C215.594 11.6621 215.795 12.7183 216.204 13.7171C216.614 14.6943 217.203 15.5925 217.994 16.3829C218.77 17.1805 219.646 17.7697 220.602 18.1721C221.558 18.5745 222.621 18.7829 223.742 18.7829H223.749ZM233.708 10.5339C233.708 11.8345 233.464 13.0776 232.954 14.2848C232.465 15.4488 231.732 16.5051 230.798 17.4392C229.842 18.3589 228.765 19.0703 227.557 19.5589C226.35 20.0475 225.093 20.2918 223.749 20.2918C222.406 20.2918 221.141 20.0475 219.941 19.5589C218.741 19.0703 217.677 18.3589 216.722 17.4392C215.766 16.4835 215.055 15.4201 214.566 14.2632C214.056 13.0848 213.812 11.8417 213.812 10.5339C213.812 9.22618 214.056 7.94716 214.566 6.76874C215.055 5.59032 215.766 4.52686 216.722 3.59275C217.656 2.673 218.719 1.96164 219.919 1.49458C221.098 1.02753 222.384 0.783218 223.749 0.783218C225.114 0.783218 226.401 1.02753 227.601 1.49458C228.801 1.9832 229.878 2.673 230.798 3.59275C231.754 4.52686 232.465 5.59032 232.975 6.76874C233.464 7.94716 233.708 9.21181 233.708 10.5339ZM239.471 19.796V0.409573L252.649 15.9734V1.17842H254.216V20.3278L241.059 4.74243V19.796H239.471Z" fill="white"/>
<path fill-rule="evenodd" clip-rule="evenodd" d="M30.3515 0C33.9587 0 37.2352 1.40836 39.7645 3.75083L30.3515 8.04776L20.9385 3.75083C23.4606 1.40836 26.7444 0 30.3515 0Z" fill="white"/>
<path fill-rule="evenodd" clip-rule="evenodd" d="M30.3515 13.8536C33.9587 13.8536 37.2352 15.262 39.7645 17.6045L30.3515 21.9014L20.9385 17.6045C23.4606 15.262 26.7444 13.8536 30.3515 13.8536Z" fill="white"/>
<path fill-rule="evenodd" clip-rule="evenodd" d="M15.1973 6.90526C18.8044 6.90526 22.081 8.32799 24.6103 10.6561L15.1973 14.953L5.78432 10.6561C8.29206 8.33518 11.5902 6.90526 15.1973 6.90526Z" fill="white"/>
<path fill-rule="evenodd" clip-rule="evenodd" d="M45.5201 6.90526C49.1272 6.90526 52.4254 8.32799 54.9475 10.6561L45.5201 14.953L36.1071 10.6561C38.6292 8.33518 41.913 6.90526 45.5201 6.90526Z" fill="white"/>
<path fill-rule="evenodd" clip-rule="evenodd" d="M15.1973 20.7948C18.7829 20.7948 22.081 22.2032 24.6103 24.5457H5.78432C8.29206 22.2032 11.5902 20.7948 15.1973 20.7948Z" fill="white"/>
<path fill-rule="evenodd" clip-rule="evenodd" d="M45.5201 20.7948C49.1272 20.7948 52.4254 22.2032 54.9331 24.5457H36.1143C38.6364 22.2032 41.9417 20.7948 45.5273 20.7948H45.5201Z" fill="white"/>
</g>
</g>
<defs>
<clipPath id="clip0_116_297">
<rect width="260" height="51.5487" fill="white"/>
</clipPath>
<clipPath id="clip1_116_297">
<rect width="260" height="51.5487" fill="white"/>
</clipPath>
</defs>
</svg>
