<svg width="25" height="26" viewBox="0 0 25 26" fill="none" xmlns="http://www.w3.org/2000/svg">
<path d="M8.77703 10.7096C8.1241 8.14488 8.75066 5.27964 10.658 3.26C12.8992 0.886704 16.2493 0.376145 18.9476 1.75891L14.9534 5.9883C14.4788 6.49088 14.4788 7.30459 14.9534 7.80717L16.6711 9.62604C17.1458 10.1286 17.9142 10.1286 18.3888 9.62604L22.383 5.39664C23.6888 8.25258 23.2079 11.7999 20.9654 14.1745C19.0581 16.1942 16.3522 16.8576 13.9301 16.1662L7.22131 23.2702C5.79869 24.7766 3.49085 24.7766 2.06697 23.2702C0.644344 21.7638 0.644344 19.32 2.06697 17.8123L8.77577 10.7083L8.77703 10.7096Z" stroke="#6094F8" stroke-width="2" stroke-linecap="round" stroke-linejoin="round"/>
</svg>
