<svg width="145" height="297" viewBox="0 0 145 297" fill="none" xmlns="http://www.w3.org/2000/svg">
<path fill-rule="evenodd" clip-rule="evenodd" d="M-1.60704 165.917C19.8873 165.917 39.4121 174.347 54.4839 188.367L-1.60704 214.084L-57.6979 188.367C-42.669 174.347 -23.1014 165.917 -1.60704 165.917Z" fill="#1955A6"/>
<path fill-rule="evenodd" clip-rule="evenodd" d="M-1.60704 248.833C19.8873 248.833 39.4121 257.262 54.4839 271.282L-1.60704 297L-57.6979 271.282C-42.669 257.262 -23.1014 248.833 -1.60704 248.833Z" fill="#1955A6"/>
<path fill-rule="evenodd" clip-rule="evenodd" d="M-91.9091 207.246C-70.4147 207.246 -50.89 215.762 -35.8182 229.695L-91.9091 255.413L-148 229.695C-133.057 215.805 -113.403 207.246 -91.9091 207.246Z" fill="#1955A6"/>
<path fill-rule="evenodd" clip-rule="evenodd" d="M88.7807 207.246C110.275 207.246 129.928 215.762 144.957 229.695L88.7807 255.413L32.6898 229.695C47.7187 215.805 67.2863 207.246 88.7807 207.246Z" fill="#1955A6"/>
<path fill-rule="evenodd" clip-rule="evenodd" d="M-1.60704 0C19.8873 0 39.4121 8.42919 54.4839 22.4492L-1.60704 48.1668L-57.6979 22.4492C-42.669 8.42919 -23.1014 0 -1.60704 0Z" fill="#1955A6"/>
<path fill-rule="evenodd" clip-rule="evenodd" d="M-1.60704 82.9157C19.8873 82.9157 39.4121 91.3449 54.4839 105.365L-1.60704 131.083L-57.6979 105.365C-42.669 91.3449 -23.1014 82.9157 -1.60704 82.9157Z" fill="#1955A6"/>
<path fill-rule="evenodd" clip-rule="evenodd" d="M-91.9091 41.3288C-70.4147 41.3288 -50.89 49.844 -35.8182 63.778L-91.9091 89.4957L-148 63.778C-133.057 49.8871 -113.403 41.3288 -91.9091 41.3288Z" fill="#1955A6"/>
<path fill-rule="evenodd" clip-rule="evenodd" d="M88.7807 41.3288C110.275 41.3288 129.928 49.844 144.957 63.778L88.7807 89.4957L32.6898 63.778C47.7187 49.8871 67.2863 41.3288 88.7807 41.3288Z" fill="#1955A6"/>
<path fill-rule="evenodd" clip-rule="evenodd" d="M-35.861 146.909L-91.9091 172.626L-148 146.909H-35.861Z" fill="#1955A6"/>
<path fill-rule="evenodd" clip-rule="evenodd" d="M-91.9091 124.46C-70.5432 124.46 -50.89 132.889 -35.8182 146.909H-148C-133.057 132.889 -113.403 124.46 -91.9091 124.46Z" fill="#1955A6"/>
<path fill-rule="evenodd" clip-rule="evenodd" d="M144.872 146.909H145L88.7807 172.626L32.7326 146.909H144.872Z" fill="#1955A6"/>
<path fill-rule="evenodd" clip-rule="evenodd" d="M88.7807 124.46C110.275 124.46 129.928 132.889 144.872 146.909H32.7326C47.7615 132.889 67.4576 124.46 88.8235 124.46H88.7807Z" fill="#1955A6"/>
</svg>
