<svg width="1267" height="47" viewBox="0 0 1267 47" fill="none" xmlns="http://www.w3.org/2000/svg">
<path d="M6.24 3.608C7.33867 3.608 8.31467 3.85333 9.168 4.344C10.0213 4.824 10.6827 5.50133 11.152 6.376C11.632 7.25067 11.872 8.24267 11.872 9.352C11.872 10.4613 11.632 11.4533 11.152 12.328C10.6827 13.2027 10.0213 13.8853 9.168 14.376C8.31467 14.8667 7.33867 15.112 6.24 15.112C5.14133 15.112 4.16533 14.8667 3.312 14.376C2.45867 13.8853 1.792 13.2027 1.312 12.328C0.842667 11.4533 0.608 10.4613 0.608 9.352C0.608 8.24267 0.842667 7.25067 1.312 6.376C1.792 5.50133 2.45867 4.824 3.312 4.344C4.16533 3.85333 5.14133 3.608 6.24 3.608ZM6.24 4.504C5.29067 4.504 4.464 4.70133 3.76 5.096C3.056 5.49067 2.512 6.056 2.128 6.792C1.75467 7.51733 1.568 8.37067 1.568 9.352C1.568 10.3227 1.75467 11.176 2.128 11.912C2.512 12.648 3.056 13.2187 3.76 13.624C4.464 14.0187 5.29067 14.216 6.24 14.216C7.18933 14.216 8.016 14.0187 8.72 13.624C9.424 13.2187 9.96267 12.648 10.336 11.912C10.72 11.176 10.912 10.3227 10.912 9.352C10.912 8.37067 10.72 7.51733 10.336 6.792C9.96267 6.056 9.424 5.49067 8.72 5.096C8.016 4.70133 7.18933 4.504 6.24 4.504ZM6.256 5.752C5.57333 5.752 4.96 5.90133 4.416 6.2C3.88267 6.488 3.46133 6.904 3.152 7.448C2.85333 7.992 2.704 8.62667 2.704 9.352C2.704 10.0773 2.85333 10.712 3.152 11.256C3.46133 11.8 3.88267 12.2213 4.416 12.52C4.96 12.808 5.57333 12.952 6.256 12.952C7.09867 12.952 7.824 12.712 8.432 12.232C9.04 11.752 9.42933 11.1173 9.6 10.328H7.248C7.06667 10.8507 6.70933 11.112 6.176 11.112C5.78133 11.112 5.472 10.9627 5.248 10.664C5.024 10.3653 4.912 9.928 4.912 9.352C4.912 8.776 5.024 8.33867 5.248 8.04C5.472 7.74133 5.78133 7.592 6.176 7.592C6.44267 7.592 6.66667 7.66133 6.848 7.8C7.04 7.93867 7.17333 8.13067 7.248 8.376H9.6C9.42933 7.56533 9.04 6.92533 8.432 6.456C7.83467 5.98667 7.10933 5.752 6.256 5.752ZM13.0928 12.808C13.4554 12.52 13.6208 12.3867 13.5888 12.408C14.6341 11.544 15.4554 10.8347 16.0528 10.28C16.6608 9.72533 17.1728 9.144 17.5888 8.536C18.0048 7.928 18.2128 7.336 18.2128 6.76C18.2128 6.32267 18.1114 5.98133 17.9088 5.736C17.7061 5.49067 17.4021 5.368 16.9968 5.368C16.5914 5.368 16.2714 5.52267 16.0368 5.832C15.8128 6.13067 15.7008 6.55733 15.7008 7.112H13.0608C13.0821 6.20533 13.2741 5.448 13.6368 4.84C14.0101 4.232 14.4954 3.784 15.0928 3.496C15.7008 3.208 16.3728 3.064 17.1088 3.064C18.3781 3.064 19.3328 3.38933 19.9728 4.04C20.6234 4.69067 20.9488 5.53867 20.9488 6.584C20.9488 7.72533 20.5594 8.78667 19.7808 9.768C19.0021 10.7387 18.0101 11.688 16.8048 12.616H21.1248V14.84H13.0928V12.808ZM22.3294 9C22.3294 7.16533 22.6814 5.72 23.3854 4.664C24.1 3.608 25.2467 3.08 26.8254 3.08C28.404 3.08 29.5454 3.608 30.2494 4.664C30.964 5.72 31.3214 7.16533 31.3214 9C31.3214 10.856 30.964 12.312 30.2494 13.368C29.5454 14.424 28.404 14.952 26.8254 14.952C25.2467 14.952 24.1 14.424 23.3854 13.368C22.6814 12.312 22.3294 10.856 22.3294 9ZM28.6334 9C28.6334 7.92267 28.516 7.096 28.2814 6.52C28.0467 5.93333 27.5614 5.64 26.8254 5.64C26.0894 5.64 25.604 5.93333 25.3694 6.52C25.1347 7.096 25.0174 7.92267 25.0174 9C25.0174 9.72533 25.06 10.328 25.1454 10.808C25.2307 11.2773 25.4014 11.6613 25.6574 11.96C25.924 12.248 26.3134 12.392 26.8254 12.392C27.3374 12.392 27.7214 12.248 27.9774 11.96C28.244 11.6613 28.42 11.2773 28.5054 10.808C28.5907 10.328 28.6334 9.72533 28.6334 9ZM32.6709 12.808C33.0335 12.52 33.1989 12.3867 33.1669 12.408C34.2122 11.544 35.0335 10.8347 35.6309 10.28C36.2389 9.72533 36.7509 9.144 37.1669 8.536C37.5829 7.928 37.7909 7.336 37.7909 6.76C37.7909 6.32267 37.6895 5.98133 37.4869 5.736C37.2842 5.49067 36.9802 5.368 36.5749 5.368C36.1695 5.368 35.8495 5.52267 35.6149 5.832C35.3909 6.13067 35.2789 6.55733 35.2789 7.112H32.6389C32.6602 6.20533 32.8522 5.448 33.2149 4.84C33.5882 4.232 34.0735 3.784 34.6709 3.496C35.2789 3.208 35.9509 3.064 36.6869 3.064C37.9562 3.064 38.9109 3.38933 39.5509 4.04C40.2015 4.69067 40.5269 5.53867 40.5269 6.584C40.5269 7.72533 40.1375 8.78667 39.3589 9.768C38.5802 10.7387 37.5882 11.688 36.3829 12.616H40.7029V14.84H32.6709V12.808ZM50.1315 5.704H45.1395V7.912C45.3528 7.67733 45.6515 7.48533 46.0355 7.336C46.4195 7.18667 46.8355 7.112 47.2835 7.112C48.0835 7.112 48.7448 7.29333 49.2675 7.656C49.8008 8.01867 50.1902 8.488 50.4355 9.064C50.6808 9.64 50.8035 10.264 50.8035 10.936C50.8035 12.184 50.4515 13.176 49.7475 13.912C49.0435 14.6373 48.0515 15 46.7715 15C45.9182 15 45.1768 14.856 44.5475 14.568C43.9182 14.2693 43.4328 13.8587 43.0915 13.336C42.7502 12.8133 42.5635 12.2107 42.5315 11.528H45.2035C45.2675 11.8587 45.4222 12.136 45.6675 12.36C45.9128 12.5733 46.2488 12.68 46.6755 12.68C47.1768 12.68 47.5502 12.52 47.7955 12.2C48.0408 11.88 48.1635 11.4533 48.1635 10.92C48.1635 10.3973 48.0355 9.99733 47.7795 9.72C47.5235 9.44267 47.1502 9.304 46.6595 9.304C46.2968 9.304 45.9982 9.39467 45.7635 9.576C45.5288 9.74667 45.3742 9.976 45.2995 10.264H42.6595V3.304H50.1315V5.704ZM64.0564 3.768V5.96H61.0804V15H58.3444V5.96H55.3684V3.768H64.0564ZM68.1655 5.96V8.232H71.8295V10.344H68.1655V12.808H72.3095V15H65.4295V3.768H72.3095V5.96H68.1655ZM73.6217 9.368C73.6217 8.25867 73.8618 7.272 74.3418 6.408C74.8218 5.53333 75.4884 4.856 76.3418 4.376C77.2058 3.88533 78.1818 3.64 79.2698 3.64C80.6031 3.64 81.7444 3.992 82.6938 4.696C83.6431 5.4 84.2778 6.36 84.5978 7.576H81.5898C81.3658 7.10667 81.0458 6.74933 80.6298 6.504C80.2244 6.25867 79.7604 6.136 79.2378 6.136C78.3951 6.136 77.7124 6.42933 77.1898 7.016C76.6671 7.60267 76.4058 8.38667 76.4058 9.368C76.4058 10.3493 76.6671 11.1333 77.1898 11.72C77.7124 12.3067 78.3951 12.6 79.2378 12.6C79.7604 12.6 80.2244 12.4773 80.6298 12.232C81.0458 11.9867 81.3658 11.6293 81.5898 11.16H84.5978C84.2778 12.376 83.6431 13.336 82.6938 14.04C81.7444 14.7333 80.6031 15.08 79.2698 15.08C78.1818 15.08 77.2058 14.84 76.3418 14.36C75.4884 13.8693 74.8218 13.192 74.3418 12.328C73.8618 11.464 73.6217 10.4773 73.6217 9.368ZM96.0013 3.768V15H93.2653V10.376H89.0093V15H86.2733V3.768H89.0093V8.168H93.2653V3.768H96.0013ZM108.024 15H105.288L100.712 8.072V15H97.9764V3.768H100.712L105.288 10.728V3.768H108.024V15ZM115.32 15.112C114.264 15.112 113.293 14.8667 112.408 14.376C111.533 13.8853 110.834 13.2027 110.312 12.328C109.8 11.4427 109.544 10.4507 109.544 9.352C109.544 8.25333 109.8 7.26667 110.312 6.392C110.834 5.51733 111.533 4.83467 112.408 4.344C113.293 3.85333 114.264 3.608 115.32 3.608C116.376 3.608 117.341 3.85333 118.216 4.344C119.101 4.83467 119.794 5.51733 120.296 6.392C120.808 7.26667 121.064 8.25333 121.064 9.352C121.064 10.4507 120.808 11.4427 120.296 12.328C119.784 13.2027 119.09 13.8853 118.216 14.376C117.341 14.8667 116.376 15.112 115.32 15.112ZM115.32 12.616C116.216 12.616 116.93 12.3173 117.464 11.72C118.008 11.1227 118.28 10.3333 118.28 9.352C118.28 8.36 118.008 7.57067 117.464 6.984C116.93 6.38667 116.216 6.088 115.32 6.088C114.413 6.088 113.688 6.38133 113.144 6.968C112.61 7.55467 112.344 8.34933 112.344 9.352C112.344 10.344 112.61 11.1387 113.144 11.736C113.688 12.3227 114.413 12.616 115.32 12.616ZM130.666 3.768V5.96H127.69V15H124.954V5.96H121.978V3.768H130.666ZM137.767 15L135.431 10.76H134.775V15H132.039V3.768H136.631C137.516 3.768 138.268 3.92267 138.887 4.232C139.516 4.54133 139.986 4.968 140.295 5.512C140.604 6.04533 140.759 6.64267 140.759 7.304C140.759 8.05067 140.546 8.71733 140.119 9.304C139.703 9.89067 139.084 10.3067 138.263 10.552L140.855 15H137.767ZM134.775 8.824H136.471C136.972 8.824 137.346 8.70133 137.591 8.456C137.847 8.21067 137.975 7.864 137.975 7.416C137.975 6.98933 137.847 6.65333 137.591 6.408C137.346 6.16267 136.972 6.04 136.471 6.04H134.775V8.824ZM147.788 15.112C146.732 15.112 145.762 14.8667 144.876 14.376C144.002 13.8853 143.303 13.2027 142.78 12.328C142.268 11.4427 142.012 10.4507 142.012 9.352C142.012 8.25333 142.268 7.26667 142.78 6.392C143.303 5.51733 144.002 4.83467 144.876 4.344C145.762 3.85333 146.732 3.608 147.788 3.608C148.844 3.608 149.81 3.85333 150.684 4.344C151.57 4.83467 152.263 5.51733 152.764 6.392C153.276 7.26667 153.532 8.25333 153.532 9.352C153.532 10.4507 153.276 11.4427 152.764 12.328C152.252 13.2027 151.559 13.8853 150.684 14.376C149.81 14.8667 148.844 15.112 147.788 15.112ZM147.788 12.616C148.684 12.616 149.399 12.3173 149.932 11.72C150.476 11.1227 150.748 10.3333 150.748 9.352C150.748 8.36 150.476 7.57067 149.932 6.984C149.399 6.38667 148.684 6.088 147.788 6.088C146.882 6.088 146.156 6.38133 145.612 6.968C145.079 7.55467 144.812 8.34933 144.812 9.352C144.812 10.344 145.079 11.1387 145.612 11.736C146.156 12.3227 146.882 12.616 147.788 12.616ZM165.103 15H162.367L157.791 8.072V15H155.055V3.768H157.791L162.367 10.728V3.768H165.103V15ZM183.196 3.768V15H180.46V8.264L177.948 15H175.74L173.212 8.248V15H170.476V3.768H173.708L176.86 11.544L179.98 3.768H183.196ZM187.9 5.96V8.232H191.564V10.344H187.9V12.808H192.044V15H185.164V3.768H192.044V5.96H187.9ZM201.9 3.768V5.96H198.924V15H196.188V5.96H193.212V3.768H201.9ZM210.265 13.016H206.073L205.401 15H202.537L206.601 3.768H209.769L213.833 15H210.937L210.265 13.016ZM209.561 10.904L208.169 6.792L206.793 10.904H209.561ZM217.806 12.888H221.39V15H215.07V3.768H217.806V12.888ZM225.639 12.472L223.863 17.064H222.119L223.047 12.472H225.639ZM234.312 15.128C233.533 15.128 232.84 14.9947 232.232 14.728C231.624 14.4613 231.144 14.0987 230.792 13.64C230.44 13.1707 230.242 12.648 230.2 12.072H232.904C232.936 12.3813 233.08 12.632 233.336 12.824C233.592 13.016 233.906 13.112 234.28 13.112C234.621 13.112 234.882 13.048 235.064 12.92C235.256 12.7813 235.352 12.6053 235.352 12.392C235.352 12.136 235.218 11.9493 234.952 11.832C234.685 11.704 234.253 11.5653 233.656 11.416C233.016 11.2667 232.482 11.112 232.056 10.952C231.629 10.7813 231.261 10.52 230.952 10.168C230.642 9.80533 230.488 9.32 230.488 8.712C230.488 8.2 230.626 7.736 230.904 7.32C231.192 6.89333 231.608 6.55733 232.152 6.312C232.706 6.06667 233.362 5.944 234.12 5.944C235.24 5.944 236.12 6.22133 236.76 6.776C237.41 7.33067 237.784 8.06667 237.88 8.984H235.352C235.309 8.67467 235.17 8.42933 234.936 8.248C234.712 8.06667 234.413 7.976 234.04 7.976C233.72 7.976 233.474 8.04 233.304 8.168C233.133 8.28533 233.048 8.45067 233.048 8.664C233.048 8.92 233.181 9.112 233.448 9.24C233.725 9.368 234.152 9.496 234.728 9.624C235.389 9.79467 235.928 9.96533 236.344 10.136C236.76 10.296 237.122 10.5627 237.432 10.936C237.752 11.2987 237.917 11.7893 237.928 12.408C237.928 12.9307 237.778 13.4 237.48 13.816C237.192 14.2213 236.77 14.5413 236.216 14.776C235.672 15.0107 235.037 15.128 234.312 15.128ZM240.881 15.128C240.401 15.128 240.007 14.9893 239.697 14.712C239.399 14.424 239.249 14.072 239.249 13.656C239.249 13.2293 239.399 12.872 239.697 12.584C240.007 12.296 240.401 12.152 240.881 12.152C241.351 12.152 241.735 12.296 242.033 12.584C242.343 12.872 242.497 13.2293 242.497 13.656C242.497 14.072 242.343 14.424 242.033 14.712C241.735 14.9893 241.351 15.128 240.881 15.128ZM246.853 7.56C247.173 7.06933 247.573 6.68533 248.053 6.408C248.533 6.12 249.066 5.976 249.653 5.976V8.872H248.901C248.218 8.872 247.706 9.02133 247.365 9.32C247.024 9.608 246.853 10.12 246.853 10.856V15H244.117V6.072H246.853V7.56ZM252.241 15.128C251.761 15.128 251.366 14.9893 251.057 14.712C250.758 14.424 250.609 14.072 250.609 13.656C250.609 13.2293 250.758 12.872 251.057 12.584C251.366 12.296 251.761 12.152 252.241 12.152C252.71 12.152 253.094 12.296 253.393 12.584C253.702 12.872 253.857 13.2293 253.857 13.656C253.857 14.072 253.702 14.424 253.393 14.712C253.094 14.9893 252.71 15.128 252.241 15.128ZM259.54 15.128C258.666 15.128 257.876 14.9413 257.172 14.568C256.479 14.1947 255.93 13.6613 255.524 12.968C255.13 12.2747 254.932 11.464 254.932 10.536C254.932 9.61867 255.135 8.81333 255.54 8.12C255.946 7.416 256.5 6.87733 257.204 6.504C257.908 6.13067 258.698 5.944 259.572 5.944C260.447 5.944 261.236 6.13067 261.94 6.504C262.644 6.87733 263.199 7.416 263.604 8.12C264.01 8.81333 264.212 9.61867 264.212 10.536C264.212 11.4533 264.004 12.264 263.588 12.968C263.183 13.6613 262.623 14.1947 261.908 14.568C261.204 14.9413 260.415 15.128 259.54 15.128ZM259.54 12.76C260.063 12.76 260.506 12.568 260.868 12.184C261.242 11.8 261.428 11.2507 261.428 10.536C261.428 9.82133 261.247 9.272 260.884 8.888C260.532 8.504 260.095 8.312 259.572 8.312C259.039 8.312 258.596 8.504 258.244 8.888C257.892 9.26133 257.716 9.81067 257.716 10.536C257.716 11.2507 257.887 11.8 258.228 12.184C258.58 12.568 259.018 12.76 259.54 12.76ZM266.944 15.128C266.464 15.128 266.069 14.9893 265.76 14.712C265.461 14.424 265.312 14.072 265.312 13.656C265.312 13.2293 265.461 12.872 265.76 12.584C266.069 12.296 266.464 12.152 266.944 12.152C267.413 12.152 267.797 12.296 268.096 12.584C268.405 12.872 268.56 13.2293 268.56 13.656C268.56 14.072 268.405 14.424 268.096 14.712C267.797 14.9893 267.413 15.128 266.944 15.128Z" fill="white"/>
<path opacity="0.75" d="M7.854 36.168C7.854 36.6627 7.73733 37.1293 7.504 37.568C7.27067 38.0067 6.89733 38.366 6.384 38.646C5.87067 38.9167 5.21267 39.052 4.41 39.052H2.646V43H1.05V33.27H4.41C5.15667 33.27 5.78667 33.4007 6.3 33.662C6.82267 33.914 7.21 34.2593 7.462 34.698C7.72333 35.1367 7.854 35.6267 7.854 36.168ZM4.41 37.75C5.01667 37.75 5.46933 37.6147 5.768 37.344C6.06667 37.064 6.216 36.672 6.216 36.168C6.216 35.104 5.614 34.572 4.41 34.572H2.646V37.75H4.41ZM10.9722 36.406C11.2055 36.014 11.5135 35.7107 11.8962 35.496C12.2882 35.272 12.7502 35.16 13.2822 35.16V36.812H12.8762C12.2508 36.812 11.7748 36.9707 11.4482 37.288C11.1308 37.6053 10.9722 38.156 10.9722 38.94V43H9.37617V35.286H10.9722V36.406ZM18.0952 43.126C17.3672 43.126 16.7092 42.9627 16.1212 42.636C15.5332 42.3 15.0712 41.8333 14.7352 41.236C14.3992 40.6293 14.2312 39.9293 14.2312 39.136C14.2312 38.352 14.4039 37.6567 14.7492 37.05C15.0946 36.4433 15.5659 35.9767 16.1632 35.65C16.7606 35.3233 17.4279 35.16 18.1652 35.16C18.9026 35.16 19.5699 35.3233 20.1672 35.65C20.7646 35.9767 21.2359 36.4433 21.5812 37.05C21.9266 37.6567 22.0992 38.352 22.0992 39.136C22.0992 39.92 21.9219 40.6153 21.5672 41.222C21.2126 41.8287 20.7272 42.3 20.1112 42.636C19.5046 42.9627 18.8326 43.126 18.0952 43.126ZM18.0952 41.74C18.5059 41.74 18.8886 41.642 19.2432 41.446C19.6072 41.25 19.9012 40.956 20.1252 40.564C20.3492 40.172 20.4612 39.696 20.4612 39.136C20.4612 38.576 20.3539 38.1047 20.1392 37.722C19.9246 37.33 19.6399 37.036 19.2852 36.84C18.9306 36.644 18.5479 36.546 18.1372 36.546C17.7266 36.546 17.3439 36.644 16.9892 36.84C16.6439 37.036 16.3686 37.33 16.1632 37.722C15.9579 38.1047 15.8552 38.576 15.8552 39.136C15.8552 39.9667 16.0652 40.6107 16.4852 41.068C16.9146 41.516 17.4512 41.74 18.0952 41.74ZM27.667 35.16C28.255 35.16 28.7776 35.286 29.235 35.538C29.7016 35.79 30.0656 36.1633 30.327 36.658C30.5976 37.1527 30.733 37.75 30.733 38.45V43H29.151V38.688C29.151 37.9973 28.9783 37.47 28.633 37.106C28.2876 36.7327 27.8163 36.546 27.219 36.546C26.6216 36.546 26.1456 36.7327 25.791 37.106C25.4456 37.47 25.273 37.9973 25.273 38.688V43H23.677V32.64H25.273V36.182C25.5436 35.8553 25.8843 35.6033 26.295 35.426C26.715 35.2487 27.1723 35.16 27.667 35.16ZM34.3648 32.64V43H32.7688V32.64H34.3648ZM35.9282 39.108C35.9282 38.3333 36.0868 37.6473 36.4042 37.05C36.7308 36.4527 37.1695 35.9907 37.7202 35.664C38.2802 35.328 38.8962 35.16 39.5682 35.16C40.1748 35.16 40.7022 35.2813 41.1502 35.524C41.6075 35.7573 41.9715 36.0513 42.2422 36.406V35.286H43.8522V43H42.2422V41.852C41.9715 42.216 41.6028 42.5193 41.1362 42.762C40.6695 43.0047 40.1375 43.126 39.5402 43.126C38.8775 43.126 38.2708 42.958 37.7202 42.622C37.1695 42.2767 36.7308 41.8007 36.4042 41.194C36.0868 40.578 35.9282 39.8827 35.9282 39.108ZM42.2422 39.136C42.2422 38.604 42.1302 38.142 41.9062 37.75C41.6915 37.358 41.4068 37.0593 41.0522 36.854C40.6975 36.6487 40.3148 36.546 39.9042 36.546C39.4935 36.546 39.1108 36.6487 38.7562 36.854C38.4015 37.05 38.1122 37.344 37.8882 37.736C37.6735 38.1187 37.5662 38.576 37.5662 39.108C37.5662 39.64 37.6735 40.1067 37.8882 40.508C38.1122 40.9093 38.4015 41.2173 38.7562 41.432C39.1202 41.6373 39.5028 41.74 39.9042 41.74C40.3148 41.74 40.6975 41.6373 41.0522 41.432C41.4068 41.2267 41.6915 40.928 41.9062 40.536C42.1302 40.1347 42.2422 39.668 42.2422 39.136ZM41.5982 33.214L38.5042 34.74V33.564L41.5982 31.856V33.214ZM48.7484 43.126C48.1418 43.126 47.5958 43.0187 47.1104 42.804C46.6344 42.58 46.2564 42.2813 45.9764 41.908C45.6964 41.5253 45.5471 41.1007 45.5284 40.634H47.1804C47.2084 40.9607 47.3624 41.236 47.6424 41.46C47.9318 41.6747 48.2911 41.782 48.7204 41.782C49.1684 41.782 49.5138 41.698 49.7564 41.53C50.0084 41.3527 50.1344 41.1287 50.1344 40.858C50.1344 40.5687 49.9944 40.354 49.7144 40.214C49.4438 40.074 49.0098 39.92 48.4124 39.752C47.8338 39.5933 47.3624 39.4393 46.9984 39.29C46.6344 39.1407 46.3171 38.912 46.0464 38.604C45.7851 38.296 45.6544 37.89 45.6544 37.386C45.6544 36.9753 45.7758 36.602 46.0184 36.266C46.2611 35.9207 46.6064 35.65 47.0544 35.454C47.5118 35.258 48.0344 35.16 48.6224 35.16C49.4998 35.16 50.2044 35.384 50.7364 35.832C51.2778 36.2707 51.5671 36.8727 51.6044 37.638H50.0084C49.9804 37.2927 49.8404 37.0173 49.5884 36.812C49.3364 36.6067 48.9958 36.504 48.5664 36.504C48.1464 36.504 47.8244 36.5833 47.6004 36.742C47.3764 36.9007 47.2644 37.1107 47.2644 37.372C47.2644 37.5773 47.3391 37.75 47.4884 37.89C47.6378 38.03 47.8198 38.142 48.0344 38.226C48.2491 38.3007 48.5664 38.3987 48.9864 38.52C49.5464 38.6693 50.0038 38.8233 50.3584 38.982C50.7224 39.1313 51.0351 39.3553 51.2964 39.654C51.5578 39.9527 51.6931 40.3493 51.7024 40.844C51.7024 41.2827 51.5811 41.6747 51.3384 42.02C51.0958 42.3653 50.7504 42.636 50.3024 42.832C49.8638 43.028 49.3458 43.126 48.7484 43.126ZM50.6244 33.452L48.6224 34.614L46.6204 33.452V32.206L48.6224 33.41L50.6244 32.206V33.452ZM60.497 38.954C60.497 39.2433 60.4783 39.5047 60.441 39.738H54.547C54.5936 40.354 54.8223 40.8487 55.233 41.222C55.6436 41.5953 56.1476 41.782 56.745 41.782C57.6036 41.782 58.2103 41.4227 58.565 40.704H60.287C60.0536 41.4133 59.629 41.9967 59.013 42.454C58.4063 42.902 57.6503 43.126 56.745 43.126C56.0076 43.126 55.345 42.9627 54.757 42.636C54.1783 42.3 53.721 41.8333 53.385 41.236C53.0583 40.6293 52.895 39.9293 52.895 39.136C52.895 38.3427 53.0536 37.6473 53.371 37.05C53.6976 36.4433 54.1503 35.9767 54.729 35.65C55.317 35.3233 55.989 35.16 56.745 35.16C57.473 35.16 58.1216 35.3187 58.691 35.636C59.2603 35.9533 59.7036 36.4013 60.021 36.98C60.3383 37.5493 60.497 38.2073 60.497 38.954ZM58.831 38.45C58.8216 37.862 58.6116 37.3907 58.201 37.036C57.7903 36.6813 57.2816 36.504 56.675 36.504C56.1243 36.504 55.653 36.6813 55.261 37.036C54.869 37.3813 54.6356 37.8527 54.561 38.45H58.831ZM65.9596 35.16C66.5662 35.16 67.1076 35.286 67.5836 35.538C68.0689 35.79 68.4469 36.1633 68.7176 36.658C68.9882 37.1527 69.1236 37.75 69.1236 38.45V43H67.5416V38.688C67.5416 37.9973 67.3689 37.47 67.0236 37.106C66.6782 36.7327 66.2069 36.546 65.6096 36.546C65.0122 36.546 64.5362 36.7327 64.1816 37.106C63.8362 37.47 63.6636 37.9973 63.6636 38.688V43H62.0676V35.286H63.6636V36.168C63.9249 35.8507 64.2562 35.6033 64.6576 35.426C65.0682 35.2487 65.5022 35.16 65.9596 35.16ZM72.7554 35.286V43H71.1594V35.286H72.7554ZM73.3994 33.214L70.3054 34.74V33.564L73.3994 31.856V33.214ZM81.8335 43.126C81.1055 43.126 80.4475 42.9627 79.8595 42.636C79.2715 42.3 78.8095 41.8333 78.4735 41.236C78.1375 40.6293 77.9695 39.9293 77.9695 39.136C77.9695 38.352 78.1422 37.6567 78.4875 37.05C78.8328 36.4433 79.3042 35.9767 79.9015 35.65C80.4988 35.3233 81.1662 35.16 81.9035 35.16C82.6408 35.16 83.3082 35.3233 83.9055 35.65C84.5028 35.9767 84.9742 36.4433 85.3195 37.05C85.6648 37.6567 85.8375 38.352 85.8375 39.136C85.8375 39.92 85.6602 40.6153 85.3055 41.222C84.9508 41.8287 84.4655 42.3 83.8495 42.636C83.2428 42.9627 82.5708 43.126 81.8335 43.126ZM81.8335 41.74C82.2442 41.74 82.6268 41.642 82.9815 41.446C83.3455 41.25 83.6395 40.956 83.8635 40.564C84.0875 40.172 84.1995 39.696 84.1995 39.136C84.1995 38.576 84.0922 38.1047 83.8775 37.722C83.6628 37.33 83.3782 37.036 83.0235 36.84C82.6688 36.644 82.2862 36.546 81.8755 36.546C81.4648 36.546 81.0822 36.644 80.7275 36.84C80.3822 37.036 80.1068 37.33 79.9015 37.722C79.6962 38.1047 79.5935 38.576 79.5935 39.136C79.5935 39.9667 79.8035 40.6107 80.2235 41.068C80.6528 41.516 81.1895 41.74 81.8335 41.74ZM92.648 36.42C92.9186 36.0653 93.2873 35.7667 93.754 35.524C94.2206 35.2813 94.748 35.16 95.336 35.16C96.008 35.16 96.6193 35.328 97.17 35.664C97.73 35.9907 98.1686 36.4527 98.486 37.05C98.8033 37.6473 98.962 38.3333 98.962 39.108C98.962 39.8827 98.8033 40.578 98.486 41.194C98.1686 41.8007 97.73 42.2767 97.17 42.622C96.6193 42.958 96.008 43.126 95.336 43.126C94.748 43.126 94.2253 43.0093 93.768 42.776C93.3106 42.5333 92.9373 42.2347 92.648 41.88V46.668H91.052V35.286H92.648V36.42ZM97.338 39.108C97.338 38.576 97.226 38.1187 97.002 37.736C96.7873 37.344 96.498 37.05 96.134 36.854C95.7793 36.6487 95.3966 36.546 94.986 36.546C94.5846 36.546 94.202 36.6487 93.838 36.854C93.4833 37.0593 93.194 37.358 92.97 37.75C92.7553 38.142 92.648 38.604 92.648 39.136C92.648 39.668 92.7553 40.1347 92.97 40.536C93.194 40.928 93.4833 41.2267 93.838 41.432C94.202 41.6373 94.5846 41.74 94.986 41.74C95.3966 41.74 95.7793 41.6373 96.134 41.432C96.498 41.2173 96.7873 40.9093 97.002 40.508C97.226 40.1067 97.338 39.64 97.338 39.108ZM102.136 36.406C102.37 36.014 102.678 35.7107 103.06 35.496C103.452 35.272 103.914 35.16 104.446 35.16V36.812H104.04C103.415 36.812 102.939 36.9707 102.612 37.288C102.295 37.6053 102.136 38.156 102.136 38.94V43H100.54V35.286H102.136V36.406ZM104.866 33.578L102.864 34.74L100.862 33.578V32.332L102.864 33.536L104.866 32.332V33.578ZM107.509 35.286V43H105.913V35.286H107.509ZM108.153 33.214L105.059 34.74V33.564L108.153 31.856V33.214ZM112.405 43.126C111.798 43.126 111.252 43.0187 110.767 42.804C110.291 42.58 109.913 42.2813 109.633 41.908C109.353 41.5253 109.203 41.1007 109.185 40.634H110.837C110.865 40.9607 111.019 41.236 111.299 41.46C111.588 41.6747 111.947 41.782 112.377 41.782C112.825 41.782 113.17 41.698 113.413 41.53C113.665 41.3527 113.791 41.1287 113.791 40.858C113.791 40.5687 113.651 40.354 113.371 40.214C113.1 40.074 112.666 39.92 112.069 39.752C111.49 39.5933 111.019 39.4393 110.655 39.29C110.291 39.1407 109.973 38.912 109.703 38.604C109.441 38.296 109.311 37.89 109.311 37.386C109.311 36.9753 109.432 36.602 109.675 36.266C109.917 35.9207 110.263 35.65 110.711 35.454C111.168 35.258 111.691 35.16 112.279 35.16C113.156 35.16 113.861 35.384 114.393 35.832C114.934 36.2707 115.223 36.8727 115.261 37.638H113.665C113.637 37.2927 113.497 37.0173 113.245 36.812C112.993 36.6067 112.652 36.504 112.223 36.504C111.803 36.504 111.481 36.5833 111.257 36.742C111.033 36.9007 110.921 37.1107 110.921 37.372C110.921 37.5773 110.995 37.75 111.145 37.89C111.294 38.03 111.476 38.142 111.691 38.226C111.905 38.3007 112.223 38.3987 112.643 38.52C113.203 38.6693 113.66 38.8233 114.015 38.982C114.379 39.1313 114.691 39.3553 114.953 39.654C115.214 39.9527 115.349 40.3493 115.359 40.844C115.359 41.2827 115.237 41.6747 114.995 42.02C114.752 42.3653 114.407 42.636 113.959 42.832C113.52 43.028 113.002 43.126 112.405 43.126ZM118.945 36.588V40.858C118.945 41.1473 119.011 41.3573 119.141 41.488C119.281 41.6093 119.515 41.67 119.841 41.67H120.821V43H119.561C118.843 43 118.292 42.832 117.909 42.496C117.527 42.16 117.335 41.614 117.335 40.858V36.588H116.425V35.286H117.335V33.368H118.945V35.286H120.821V36.588H118.945ZM129.278 35.286V43H127.682V42.09C127.43 42.4073 127.099 42.6593 126.688 42.846C126.287 43.0233 125.858 43.112 125.4 43.112C124.794 43.112 124.248 42.986 123.762 42.734C123.286 42.482 122.908 42.1087 122.628 41.614C122.358 41.1193 122.222 40.522 122.222 39.822V35.286H123.804V39.584C123.804 40.2747 123.977 40.8067 124.322 41.18C124.668 41.544 125.139 41.726 125.736 41.726C126.334 41.726 126.805 41.544 127.15 41.18C127.505 40.8067 127.682 40.2747 127.682 39.584V35.286H129.278ZM132.98 36.42C133.251 36.0653 133.619 35.7667 134.086 35.524C134.553 35.2813 135.08 35.16 135.668 35.16C136.34 35.16 136.951 35.328 137.502 35.664C138.062 35.9907 138.501 36.4527 138.818 37.05C139.135 37.6473 139.294 38.3333 139.294 39.108C139.294 39.8827 139.135 40.578 138.818 41.194C138.501 41.8007 138.062 42.2767 137.502 42.622C136.951 42.958 136.34 43.126 135.668 43.126C135.08 43.126 134.557 43.0093 134.1 42.776C133.643 42.5333 133.269 42.2347 132.98 41.88V46.668H131.384V35.286H132.98V36.42ZM137.67 39.108C137.67 38.576 137.558 38.1187 137.334 37.736C137.119 37.344 136.83 37.05 136.466 36.854C136.111 36.6487 135.729 36.546 135.318 36.546C134.917 36.546 134.534 36.6487 134.17 36.854C133.815 37.0593 133.526 37.358 133.302 37.75C133.087 38.142 132.98 38.604 132.98 39.136C132.98 39.668 133.087 40.1347 133.302 40.536C133.526 40.928 133.815 41.2267 134.17 41.432C134.534 41.6373 134.917 41.74 135.318 41.74C135.729 41.74 136.111 41.6373 136.466 41.432C136.83 41.2173 137.119 40.9093 137.334 40.508C137.558 40.1067 137.67 39.64 137.67 39.108ZM144.764 35.16C145.371 35.16 145.912 35.286 146.388 35.538C146.874 35.79 147.252 36.1633 147.522 36.658C147.793 37.1527 147.928 37.75 147.928 38.45V43H146.346V38.688C146.346 37.9973 146.174 37.47 145.828 37.106C145.483 36.7327 145.012 36.546 144.414 36.546C143.817 36.546 143.341 36.7327 142.986 37.106C142.641 37.47 142.468 37.9973 142.468 38.688V43H140.872V35.286H142.468V36.168C142.73 35.8507 143.061 35.6033 143.462 35.426C143.873 35.2487 144.307 35.16 144.764 35.16ZM153.31 43.126C152.582 43.126 151.924 42.9627 151.336 42.636C150.748 42.3 150.286 41.8333 149.95 41.236C149.614 40.6293 149.446 39.9293 149.446 39.136C149.446 38.352 149.619 37.6567 149.964 37.05C150.309 36.4433 150.781 35.9767 151.378 35.65C151.975 35.3233 152.643 35.16 153.38 35.16C154.117 35.16 154.785 35.3233 155.382 35.65C155.979 35.9767 156.451 36.4433 156.796 37.05C157.141 37.6567 157.314 38.352 157.314 39.136C157.314 39.92 157.137 40.6153 156.782 41.222C156.427 41.8287 155.942 42.3 155.326 42.636C154.719 42.9627 154.047 43.126 153.31 43.126ZM153.31 41.74C153.721 41.74 154.103 41.642 154.458 41.446C154.822 41.25 155.116 40.956 155.34 40.564C155.564 40.172 155.676 39.696 155.676 39.136C155.676 38.576 155.569 38.1047 155.354 37.722C155.139 37.33 154.855 37.036 154.5 36.84C154.145 36.644 153.763 36.546 153.352 36.546C152.941 36.546 152.559 36.644 152.204 36.84C151.859 37.036 151.583 37.33 151.378 37.722C151.173 38.1047 151.07 38.576 151.07 39.136C151.07 39.9667 151.28 40.6107 151.7 41.068C152.129 41.516 152.666 41.74 153.31 41.74ZM161.692 43.126C161.085 43.126 160.539 43.0187 160.054 42.804C159.578 42.58 159.2 42.2813 158.92 41.908C158.64 41.5253 158.49 41.1007 158.472 40.634H160.124C160.152 40.9607 160.306 41.236 160.586 41.46C160.875 41.6747 161.234 41.782 161.664 41.782C162.112 41.782 162.457 41.698 162.7 41.53C162.952 41.3527 163.078 41.1287 163.078 40.858C163.078 40.5687 162.938 40.354 162.658 40.214C162.387 40.074 161.953 39.92 161.356 39.752C160.777 39.5933 160.306 39.4393 159.942 39.29C159.578 39.1407 159.26 38.912 158.99 38.604C158.728 38.296 158.598 37.89 158.598 37.386C158.598 36.9753 158.719 36.602 158.962 36.266C159.204 35.9207 159.55 35.65 159.998 35.454C160.455 35.258 160.978 35.16 161.566 35.16C162.443 35.16 163.148 35.384 163.68 35.832C164.221 36.2707 164.51 36.8727 164.548 37.638H162.952C162.924 37.2927 162.784 37.0173 162.532 36.812C162.28 36.6067 161.939 36.504 161.51 36.504C161.09 36.504 160.768 36.5833 160.544 36.742C160.32 36.9007 160.208 37.1107 160.208 37.372C160.208 37.5773 160.282 37.75 160.432 37.89C160.581 38.03 160.763 38.142 160.978 38.226C161.192 38.3007 161.51 38.3987 161.93 38.52C162.49 38.6693 162.947 38.8233 163.302 38.982C163.666 39.1313 163.978 39.3553 164.24 39.654C164.501 39.9527 164.636 40.3493 164.646 40.844C164.646 41.2827 164.524 41.6747 164.282 42.02C164.039 42.3653 163.694 42.636 163.246 42.832C162.807 43.028 162.289 43.126 161.692 43.126ZM168.232 36.588V40.858C168.232 41.1473 168.298 41.3573 168.428 41.488C168.568 41.6093 168.802 41.67 169.128 41.67H170.108V43H168.848C168.13 43 167.579 42.832 167.196 42.496C166.814 42.16 166.622 41.614 166.622 40.858V36.588H165.712V35.286H166.622V33.368H168.232V35.286H170.108V36.588H168.232ZM172.391 34.264C172.102 34.264 171.859 34.166 171.663 33.97C171.467 33.774 171.369 33.5313 171.369 33.242C171.369 32.9527 171.467 32.71 171.663 32.514C171.859 32.318 172.102 32.22 172.391 32.22C172.671 32.22 172.909 32.318 173.105 32.514C173.301 32.71 173.399 32.9527 173.399 33.242C173.399 33.5313 173.301 33.774 173.105 33.97C172.909 34.166 172.671 34.264 172.391 34.264ZM173.175 35.286V43H171.579V35.286H173.175Z" fill="#A4BFCB"/>
<path opacity="0.75" d="M194.298 33.27V43H192.702V36.336L189.734 43H188.628L185.646 36.336V43H184.05V33.27H185.772L189.188 40.9L192.59 33.27H194.298ZM195.864 39.108C195.864 38.3333 196.022 37.6473 196.34 37.05C196.666 36.4527 197.105 35.9907 197.656 35.664C198.216 35.328 198.832 35.16 199.504 35.16C200.11 35.16 200.638 35.2813 201.086 35.524C201.543 35.7573 201.907 36.0513 202.178 36.406V35.286H203.788V43H202.178V41.852C201.907 42.216 201.538 42.5193 201.072 42.762C200.605 43.0047 200.073 43.126 199.476 43.126C198.813 43.126 198.206 42.958 197.656 42.622C197.105 42.2767 196.666 41.8007 196.34 41.194C196.022 40.578 195.864 39.8827 195.864 39.108ZM202.178 39.136C202.178 38.604 202.066 38.142 201.842 37.75C201.627 37.358 201.342 37.0593 200.988 36.854C200.633 36.6487 200.25 36.546 199.84 36.546C199.429 36.546 199.046 36.6487 198.692 36.854C198.337 37.05 198.048 37.344 197.824 37.736C197.609 38.1187 197.502 38.576 197.502 39.108C197.502 39.64 197.609 40.1067 197.824 40.508C198.048 40.9093 198.337 41.2173 198.692 41.432C199.056 41.6373 199.438 41.74 199.84 41.74C200.25 41.74 200.633 41.6373 200.988 41.432C201.342 41.2267 201.627 40.928 201.842 40.536C202.066 40.1347 202.178 39.668 202.178 39.136ZM207.48 36.42C207.751 36.0653 208.119 35.7667 208.586 35.524C209.053 35.2813 209.58 35.16 210.168 35.16C210.84 35.16 211.451 35.328 212.002 35.664C212.562 35.9907 213.001 36.4527 213.318 37.05C213.635 37.6473 213.794 38.3333 213.794 39.108C213.794 39.8827 213.635 40.578 213.318 41.194C213.001 41.8007 212.562 42.2767 212.002 42.622C211.451 42.958 210.84 43.126 210.168 43.126C209.58 43.126 209.057 43.0093 208.6 42.776C208.143 42.5333 207.769 42.2347 207.48 41.88V46.668H205.884V35.286H207.48V36.42ZM212.17 39.108C212.17 38.576 212.058 38.1187 211.834 37.736C211.619 37.344 211.33 37.05 210.966 36.854C210.611 36.6487 210.229 36.546 209.818 36.546C209.417 36.546 209.034 36.6487 208.67 36.854C208.315 37.0593 208.026 37.358 207.802 37.75C207.587 38.142 207.48 38.604 207.48 39.136C207.48 39.668 207.587 40.1347 207.802 40.536C208.026 40.928 208.315 41.2267 208.67 41.432C209.034 41.6373 209.417 41.74 209.818 41.74C210.229 41.74 210.611 41.6373 210.966 41.432C211.33 41.2173 211.619 40.9093 211.834 40.508C212.058 40.1067 212.17 39.64 212.17 39.108ZM214.84 39.108C214.84 38.3333 214.999 37.6473 215.316 37.05C215.643 36.4527 216.082 35.9907 216.632 35.664C217.192 35.328 217.808 35.16 218.48 35.16C219.087 35.16 219.614 35.2813 220.062 35.524C220.52 35.7573 220.884 36.0513 221.154 36.406V35.286H222.764V43H221.154V41.852C220.884 42.216 220.515 42.5193 220.048 42.762C219.582 43.0047 219.05 43.126 218.452 43.126C217.79 43.126 217.183 42.958 216.632 42.622C216.082 42.2767 215.643 41.8007 215.316 41.194C214.999 40.578 214.84 39.8827 214.84 39.108ZM221.154 39.136C221.154 38.604 221.042 38.142 220.818 37.75C220.604 37.358 220.319 37.0593 219.964 36.854C219.61 36.6487 219.227 36.546 218.816 36.546C218.406 36.546 218.023 36.6487 217.668 36.854C217.314 37.05 217.024 37.344 216.8 37.736C216.586 38.1187 216.478 38.576 216.478 39.108C216.478 39.64 216.586 40.1067 216.8 40.508C217.024 40.9093 217.314 41.2173 217.668 41.432C218.032 41.6373 218.415 41.74 218.816 41.74C219.227 41.74 219.61 41.6373 219.964 41.432C220.319 41.2267 220.604 40.928 220.818 40.536C221.042 40.1347 221.154 39.668 221.154 39.136ZM231.297 43.126C230.691 43.126 230.145 43.0187 229.659 42.804C229.183 42.58 228.805 42.2813 228.525 41.908C228.245 41.5253 228.096 41.1007 228.077 40.634H229.729C229.757 40.9607 229.911 41.236 230.191 41.46C230.481 41.6747 230.84 41.782 231.269 41.782C231.717 41.782 232.063 41.698 232.305 41.53C232.557 41.3527 232.683 41.1287 232.683 40.858C232.683 40.5687 232.543 40.354 232.263 40.214C231.993 40.074 231.559 39.92 230.961 39.752C230.383 39.5933 229.911 39.4393 229.547 39.29C229.183 39.1407 228.866 38.912 228.595 38.604C228.334 38.296 228.203 37.89 228.203 37.386C228.203 36.9753 228.325 36.602 228.567 36.266C228.81 35.9207 229.155 35.65 229.603 35.454C230.061 35.258 230.583 35.16 231.171 35.16C232.049 35.16 232.753 35.384 233.285 35.832C233.827 36.2707 234.116 36.8727 234.153 37.638H232.557C232.529 37.2927 232.389 37.0173 232.137 36.812C231.885 36.6067 231.545 36.504 231.115 36.504C230.695 36.504 230.373 36.5833 230.149 36.742C229.925 36.9007 229.813 37.1107 229.813 37.372C229.813 37.5773 229.888 37.75 230.037 37.89C230.187 38.03 230.369 38.142 230.583 38.226C230.798 38.3007 231.115 38.3987 231.535 38.52C232.095 38.6693 232.553 38.8233 232.907 38.982C233.271 39.1313 233.584 39.3553 233.845 39.654C234.107 39.9527 234.242 40.3493 234.251 40.844C234.251 41.2827 234.13 41.6747 233.887 42.02C233.645 42.3653 233.299 42.636 232.851 42.832C232.413 43.028 231.895 43.126 231.297 43.126ZM237.838 36.588V40.858C237.838 41.1473 237.903 41.3573 238.034 41.488C238.174 41.6093 238.407 41.67 238.734 41.67H239.714V43H238.454C237.735 43 237.184 42.832 236.802 42.496C236.419 42.16 236.228 41.614 236.228 40.858V36.588H235.318V35.286H236.228V33.368H237.838V35.286H239.714V36.588H237.838ZM242.781 36.406C243.014 36.014 243.322 35.7107 243.705 35.496C244.097 35.272 244.559 35.16 245.091 35.16V36.812H244.685C244.059 36.812 243.583 36.9707 243.257 37.288C242.939 37.6053 242.781 38.156 242.781 38.94V43H241.185V35.286H242.781V36.406ZM246.026 39.108C246.026 38.3333 246.184 37.6473 246.502 37.05C246.828 36.4527 247.267 35.9907 247.818 35.664C248.378 35.328 248.994 35.16 249.666 35.16C250.272 35.16 250.8 35.2813 251.248 35.524C251.705 35.7573 252.069 36.0513 252.34 36.406V35.286H253.95V43H252.34V41.852C252.069 42.216 251.7 42.5193 251.234 42.762C250.767 43.0047 250.235 43.126 249.638 43.126C248.975 43.126 248.368 42.958 247.818 42.622C247.267 42.2767 246.828 41.8007 246.502 41.194C246.184 40.578 246.026 39.8827 246.026 39.108ZM252.34 39.136C252.34 38.604 252.228 38.142 252.004 37.75C251.789 37.358 251.504 37.0593 251.15 36.854C250.795 36.6487 250.412 36.546 250.002 36.546C249.591 36.546 249.208 36.6487 248.854 36.854C248.499 37.05 248.21 37.344 247.986 37.736C247.771 38.1187 247.664 38.576 247.664 39.108C247.664 39.64 247.771 40.1067 247.986 40.508C248.21 40.9093 248.499 41.2173 248.854 41.432C249.218 41.6373 249.6 41.74 250.002 41.74C250.412 41.74 250.795 41.6373 251.15 41.432C251.504 41.2267 251.789 40.928 252.004 40.536C252.228 40.1347 252.34 39.668 252.34 39.136ZM251.696 33.214L248.602 34.74V33.564L251.696 31.856V33.214ZM259.938 35.16C260.545 35.16 261.086 35.286 261.562 35.538C262.047 35.79 262.425 36.1633 262.696 36.658C262.967 37.1527 263.102 37.75 263.102 38.45V43H261.52V38.688C261.52 37.9973 261.347 37.47 261.002 37.106C260.657 36.7327 260.185 36.546 259.588 36.546C258.991 36.546 258.515 36.7327 258.16 37.106C257.815 37.47 257.642 37.9973 257.642 38.688V43H256.046V35.286H257.642V36.168C257.903 35.8507 258.235 35.6033 258.636 35.426C259.047 35.2487 259.481 35.16 259.938 35.16ZM272.208 38.954C272.208 39.2433 272.189 39.5047 272.152 39.738H266.258C266.305 40.354 266.533 40.8487 266.944 41.222C267.355 41.5953 267.859 41.782 268.456 41.782C269.315 41.782 269.921 41.4227 270.276 40.704H271.998C271.765 41.4133 271.34 41.9967 270.724 42.454C270.117 42.902 269.361 43.126 268.456 43.126C267.719 43.126 267.056 42.9627 266.468 42.636C265.889 42.3 265.432 41.8333 265.096 41.236C264.769 40.6293 264.606 39.9293 264.606 39.136C264.606 38.3427 264.765 37.6473 265.082 37.05C265.409 36.4433 265.861 35.9767 266.44 35.65C267.028 35.3233 267.7 35.16 268.456 35.16C269.184 35.16 269.833 35.3187 270.402 35.636C270.971 35.9533 271.415 36.4013 271.732 36.98C272.049 37.5493 272.208 38.2073 272.208 38.954ZM270.542 38.45C270.533 37.862 270.323 37.3907 269.912 37.036C269.501 36.6813 268.993 36.504 268.386 36.504C267.835 36.504 267.364 36.6813 266.972 37.036C266.58 37.3813 266.347 37.8527 266.272 38.45H270.542ZM276.831 39.15L280.387 43H278.231L275.375 39.682V43H273.779V32.64H275.375V38.66L278.175 35.286H280.387L276.831 39.15Z" fill="#A4BFCB"/>
<path opacity="0.75" d="M294.488 43.098C293.583 43.098 292.747 42.888 291.982 42.468C291.226 42.0387 290.624 41.446 290.176 40.69C289.737 39.9247 289.518 39.066 289.518 38.114C289.518 37.162 289.737 36.308 290.176 35.552C290.624 34.796 291.226 34.208 291.982 33.788C292.747 33.3587 293.583 33.144 294.488 33.144C295.403 33.144 296.238 33.3587 296.994 33.788C297.759 34.208 298.361 34.796 298.8 35.552C299.239 36.308 299.458 37.162 299.458 38.114C299.458 39.066 299.239 39.9247 298.8 40.69C298.361 41.446 297.759 42.0387 296.994 42.468C296.238 42.888 295.403 43.098 294.488 43.098ZM294.488 41.712C295.132 41.712 295.706 41.5673 296.21 41.278C296.714 40.9793 297.106 40.5593 297.386 40.018C297.675 39.4673 297.82 38.8327 297.82 38.114C297.82 37.3953 297.675 36.7653 297.386 36.224C297.106 35.6827 296.714 35.2673 296.21 34.978C295.706 34.6887 295.132 34.544 294.488 34.544C293.844 34.544 293.27 34.6887 292.766 34.978C292.262 35.2673 291.865 35.6827 291.576 36.224C291.296 36.7653 291.156 37.3953 291.156 38.114C291.156 38.8327 291.296 39.4673 291.576 40.018C291.865 40.5593 292.262 40.9793 292.766 41.278C293.27 41.5673 293.844 41.712 294.488 41.712ZM300.497 39.136C300.497 38.3427 300.655 37.6473 300.973 37.05C301.299 36.4433 301.747 35.9767 302.317 35.65C302.886 35.3233 303.539 35.16 304.277 35.16C305.21 35.16 305.98 35.384 306.587 35.832C307.203 36.2707 307.618 36.9007 307.833 37.722H306.111C305.971 37.3393 305.747 37.0407 305.439 36.826C305.131 36.6113 304.743 36.504 304.277 36.504C303.623 36.504 303.101 36.7373 302.709 37.204C302.326 37.6613 302.135 38.3053 302.135 39.136C302.135 39.9667 302.326 40.6153 302.709 41.082C303.101 41.5487 303.623 41.782 304.277 41.782C305.201 41.782 305.812 41.376 306.111 40.564H307.833C307.609 41.348 307.189 41.9733 306.573 42.44C305.957 42.8973 305.191 43.126 304.277 43.126C303.539 43.126 302.886 42.9627 302.317 42.636C301.747 42.3 301.299 41.8333 300.973 41.236C300.655 40.6293 300.497 39.9293 300.497 39.136ZM313.413 35.16C314.001 35.16 314.524 35.286 314.981 35.538C315.448 35.79 315.812 36.1633 316.073 36.658C316.344 37.1527 316.479 37.75 316.479 38.45V43H314.897V38.688C314.897 37.9973 314.724 37.47 314.379 37.106C314.034 36.7327 313.562 36.546 312.965 36.546C312.368 36.546 311.892 36.7327 311.537 37.106C311.192 37.47 311.019 37.9973 311.019 38.688V43H309.423V32.64H311.019V36.182C311.29 35.8553 311.63 35.6033 312.041 35.426C312.461 35.2487 312.918 35.16 313.413 35.16ZM320.111 36.406C320.344 36.014 320.652 35.7107 321.035 35.496C321.427 35.272 321.889 35.16 322.421 35.16V36.812H322.015C321.39 36.812 320.914 36.9707 320.587 37.288C320.27 37.6053 320.111 38.156 320.111 38.94V43H318.515V35.286H320.111V36.406ZM323.356 39.108C323.356 38.3333 323.515 37.6473 323.832 37.05C324.159 36.4527 324.597 35.9907 325.148 35.664C325.708 35.328 326.324 35.16 326.996 35.16C327.603 35.16 328.13 35.2813 328.578 35.524C329.035 35.7573 329.399 36.0513 329.67 36.406V35.286H331.28V43H329.67V41.852C329.399 42.216 329.031 42.5193 328.564 42.762C328.097 43.0047 327.565 43.126 326.968 43.126C326.305 43.126 325.699 42.958 325.148 42.622C324.597 42.2767 324.159 41.8007 323.832 41.194C323.515 40.578 323.356 39.8827 323.356 39.108ZM329.67 39.136C329.67 38.604 329.558 38.142 329.334 37.75C329.119 37.358 328.835 37.0593 328.48 36.854C328.125 36.6487 327.743 36.546 327.332 36.546C326.921 36.546 326.539 36.6487 326.184 36.854C325.829 37.05 325.54 37.344 325.316 37.736C325.101 38.1187 324.994 38.576 324.994 39.108C324.994 39.64 325.101 40.1067 325.316 40.508C325.54 40.9093 325.829 41.2173 326.184 41.432C326.548 41.6373 326.931 41.74 327.332 41.74C327.743 41.74 328.125 41.6373 328.48 41.432C328.835 41.2267 329.119 40.928 329.334 40.536C329.558 40.1347 329.67 39.668 329.67 39.136ZM337.268 35.16C337.875 35.16 338.416 35.286 338.892 35.538C339.378 35.79 339.756 36.1633 340.026 36.658C340.297 37.1527 340.432 37.75 340.432 38.45V43H338.85V38.688C338.85 37.9973 338.678 37.47 338.332 37.106C337.987 36.7327 337.516 36.546 336.918 36.546C336.321 36.546 335.845 36.7327 335.49 37.106C335.145 37.47 334.972 37.9973 334.972 38.688V43H333.376V35.286H334.972V36.168C335.234 35.8507 335.565 35.6033 335.966 35.426C336.377 35.2487 336.811 35.16 337.268 35.16ZM341.936 39.108C341.936 38.3333 342.095 37.6473 342.412 37.05C342.739 36.4527 343.177 35.9907 343.728 35.664C344.288 35.328 344.904 35.16 345.576 35.16C346.183 35.16 346.71 35.2813 347.158 35.524C347.615 35.7573 347.979 36.0513 348.25 36.406V35.286H349.86V43H348.25V41.852C347.979 42.216 347.611 42.5193 347.144 42.762C346.677 43.0047 346.145 43.126 345.548 43.126C344.885 43.126 344.279 42.958 343.728 42.622C343.177 42.2767 342.739 41.8007 342.412 41.194C342.095 40.578 341.936 39.8827 341.936 39.108ZM348.25 39.136C348.25 38.604 348.138 38.142 347.914 37.75C347.699 37.358 347.415 37.0593 347.06 36.854C346.705 36.6487 346.323 36.546 345.912 36.546C345.501 36.546 345.119 36.6487 344.764 36.854C344.409 37.05 344.12 37.344 343.896 37.736C343.681 38.1187 343.574 38.576 343.574 39.108C343.574 39.64 343.681 40.1067 343.896 40.508C344.12 40.9093 344.409 41.2173 344.764 41.432C345.128 41.6373 345.511 41.74 345.912 41.74C346.323 41.74 346.705 41.6373 347.06 41.432C347.415 41.2267 347.699 40.928 347.914 40.536C348.138 40.1347 348.25 39.668 348.25 39.136ZM358.939 43.126C358.211 43.126 357.553 42.9627 356.965 42.636C356.377 42.3 355.915 41.8333 355.579 41.236C355.243 40.6293 355.075 39.9293 355.075 39.136C355.075 38.352 355.248 37.6567 355.593 37.05C355.938 36.4433 356.41 35.9767 357.007 35.65C357.604 35.3233 358.272 35.16 359.009 35.16C359.746 35.16 360.414 35.3233 361.011 35.65C361.608 35.9767 362.08 36.4433 362.425 37.05C362.77 37.6567 362.943 38.352 362.943 39.136C362.943 39.92 362.766 40.6153 362.411 41.222C362.056 41.8287 361.571 42.3 360.955 42.636C360.348 42.9627 359.676 43.126 358.939 43.126ZM358.939 41.74C359.35 41.74 359.732 41.642 360.087 41.446C360.451 41.25 360.745 40.956 360.969 40.564C361.193 40.172 361.305 39.696 361.305 39.136C361.305 38.576 361.198 38.1047 360.983 37.722C360.768 37.33 360.484 37.036 360.129 36.84C359.774 36.644 359.392 36.546 358.981 36.546C358.57 36.546 358.188 36.644 357.833 36.84C357.488 37.036 357.212 37.33 357.007 37.722C356.802 38.1047 356.699 38.576 356.699 39.136C356.699 39.9667 356.909 40.6107 357.329 41.068C357.758 41.516 358.295 41.74 358.939 41.74ZM367.321 43.126C366.714 43.126 366.168 43.0187 365.683 42.804C365.207 42.58 364.829 42.2813 364.549 41.908C364.269 41.5253 364.119 41.1007 364.101 40.634H365.753C365.781 40.9607 365.935 41.236 366.215 41.46C366.504 41.6747 366.863 41.782 367.293 41.782C367.741 41.782 368.086 41.698 368.329 41.53C368.581 41.3527 368.707 41.1287 368.707 40.858C368.707 40.5687 368.567 40.354 368.287 40.214C368.016 40.074 367.582 39.92 366.985 39.752C366.406 39.5933 365.935 39.4393 365.571 39.29C365.207 39.1407 364.889 38.912 364.619 38.604C364.357 38.296 364.227 37.89 364.227 37.386C364.227 36.9753 364.348 36.602 364.591 36.266C364.833 35.9207 365.179 35.65 365.627 35.454C366.084 35.258 366.607 35.16 367.195 35.16C368.072 35.16 368.777 35.384 369.309 35.832C369.85 36.2707 370.139 36.8727 370.177 37.638H368.581C368.553 37.2927 368.413 37.0173 368.161 36.812C367.909 36.6067 367.568 36.504 367.139 36.504C366.719 36.504 366.397 36.5833 366.173 36.742C365.949 36.9007 365.837 37.1107 365.837 37.372C365.837 37.5773 365.911 37.75 366.061 37.89C366.21 38.03 366.392 38.142 366.607 38.226C366.821 38.3007 367.139 38.3987 367.559 38.52C368.119 38.6693 368.576 38.8233 368.931 38.982C369.295 39.1313 369.607 39.3553 369.869 39.654C370.13 39.9527 370.265 40.3493 370.275 40.844C370.275 41.2827 370.153 41.6747 369.911 42.02C369.668 42.3653 369.323 42.636 368.875 42.832C368.436 43.028 367.918 43.126 367.321 43.126ZM375.345 43.126C374.617 43.126 373.959 42.9627 373.371 42.636C372.783 42.3 372.321 41.8333 371.985 41.236C371.649 40.6293 371.481 39.9293 371.481 39.136C371.481 38.352 371.654 37.6567 371.999 37.05C372.345 36.4433 372.816 35.9767 373.413 35.65C374.011 35.3233 374.678 35.16 375.415 35.16C376.153 35.16 376.82 35.3233 377.417 35.65C378.015 35.9767 378.486 36.4433 378.831 37.05C379.177 37.6567 379.349 38.352 379.349 39.136C379.349 39.92 379.172 40.6153 378.817 41.222C378.463 41.8287 377.977 42.3 377.361 42.636C376.755 42.9627 376.083 43.126 375.345 43.126ZM375.345 41.74C375.756 41.74 376.139 41.642 376.493 41.446C376.857 41.25 377.151 40.956 377.375 40.564C377.599 40.172 377.711 39.696 377.711 39.136C377.711 38.576 377.604 38.1047 377.389 37.722C377.175 37.33 376.89 37.036 376.535 36.84C376.181 36.644 375.798 36.546 375.387 36.546C374.977 36.546 374.594 36.644 374.239 36.84C373.894 37.036 373.619 37.33 373.413 37.722C373.208 38.1047 373.105 38.576 373.105 39.136C373.105 39.9667 373.315 40.6107 373.735 41.068C374.165 41.516 374.701 41.74 375.345 41.74ZM382.523 36.434C382.794 36.0607 383.162 35.7573 383.629 35.524C384.105 35.2813 384.632 35.16 385.211 35.16C385.892 35.16 386.508 35.3233 387.059 35.65C387.61 35.9767 388.044 36.4433 388.361 37.05C388.678 37.6473 388.837 38.3333 388.837 39.108C388.837 39.8827 388.678 40.578 388.361 41.194C388.044 41.8007 387.605 42.2767 387.045 42.622C386.494 42.958 385.883 43.126 385.211 43.126C384.614 43.126 384.082 43.0093 383.615 42.776C383.158 42.5427 382.794 42.244 382.523 41.88V43H380.927V32.64H382.523V36.434ZM387.213 39.108C387.213 38.576 387.101 38.1187 386.877 37.736C386.662 37.344 386.373 37.05 386.009 36.854C385.654 36.6487 385.272 36.546 384.861 36.546C384.46 36.546 384.077 36.6487 383.713 36.854C383.358 37.0593 383.069 37.358 382.845 37.75C382.63 38.142 382.523 38.604 382.523 39.136C382.523 39.668 382.63 40.1347 382.845 40.536C383.069 40.928 383.358 41.2267 383.713 41.432C384.077 41.6373 384.46 41.74 384.861 41.74C385.272 41.74 385.654 41.6373 386.009 41.432C386.373 41.2173 386.662 40.9093 386.877 40.508C387.101 40.1067 387.213 39.64 387.213 39.108ZM394.307 35.16C394.914 35.16 395.455 35.286 395.931 35.538C396.417 35.79 396.795 36.1633 397.065 36.658C397.336 37.1527 397.471 37.75 397.471 38.45V43H395.889V38.688C395.889 37.9973 395.717 37.47 395.371 37.106C395.026 36.7327 394.555 36.546 393.957 36.546C393.36 36.546 392.884 36.7327 392.529 37.106C392.184 37.47 392.011 37.9973 392.011 38.688V43H390.415V35.286H392.011V36.168C392.273 35.8507 392.604 35.6033 393.005 35.426C393.416 35.2487 393.85 35.16 394.307 35.16ZM401.103 35.286V43H399.507V35.286H401.103ZM401.747 33.214L398.653 34.74V33.564L401.747 31.856V33.214ZM402.666 39.136C402.666 38.3427 402.825 37.6473 403.142 37.05C403.469 36.4433 403.917 35.9767 404.486 35.65C405.056 35.3233 405.709 35.16 406.446 35.16C407.38 35.16 408.15 35.384 408.756 35.832C409.372 36.2707 409.788 36.9007 410.002 37.722H408.28C408.14 37.3393 407.916 37.0407 407.608 36.826C407.3 36.6113 406.913 36.504 406.446 36.504C405.793 36.504 405.27 36.7373 404.878 37.204C404.496 37.6613 404.304 38.3053 404.304 39.136C404.304 39.9667 404.496 40.6153 404.878 41.082C405.27 41.5487 405.793 41.782 406.446 41.782C407.37 41.782 407.982 41.376 408.28 40.564H410.002C409.778 41.348 409.358 41.9733 408.742 42.44C408.126 42.8973 407.361 43.126 406.446 43.126C405.709 43.126 405.056 42.9627 404.486 42.636C403.917 42.3 403.469 41.8333 403.142 41.236C402.825 40.6293 402.666 39.9293 402.666 39.136ZM415.583 35.16C416.171 35.16 416.694 35.286 417.151 35.538C417.618 35.79 417.982 36.1633 418.243 36.658C418.514 37.1527 418.649 37.75 418.649 38.45V43H417.067V38.688C417.067 37.9973 416.894 37.47 416.549 37.106C416.204 36.7327 415.732 36.546 415.135 36.546C414.538 36.546 414.062 36.7327 413.707 37.106C413.362 37.47 413.189 37.9973 413.189 38.688V43H411.593V32.64H413.189V36.182C413.46 35.8553 413.8 35.6033 414.211 35.426C414.631 35.2487 415.088 35.16 415.583 35.16ZM431.307 35.286V43H429.711V42.09C429.459 42.4073 429.128 42.6593 428.717 42.846C428.316 43.0233 427.887 43.112 427.429 43.112C426.823 43.112 426.277 42.986 425.791 42.734C425.315 42.482 424.937 42.1087 424.657 41.614C424.387 41.1193 424.251 40.522 424.251 39.822V35.286H425.833V39.584C425.833 40.2747 426.006 40.8067 426.351 41.18C426.697 41.544 427.168 41.726 427.765 41.726C428.363 41.726 428.834 41.544 429.179 41.18C429.534 40.8067 429.711 40.2747 429.711 39.584V35.286H431.307ZM429.263 33.214L426.169 34.74V33.564L429.263 31.856V33.214ZM432.881 39.108C432.881 38.3333 433.04 37.6473 433.357 37.05C433.684 36.4527 434.123 35.9907 434.673 35.664C435.233 35.328 435.854 35.16 436.535 35.16C437.039 35.16 437.534 35.272 438.019 35.496C438.514 35.7107 438.906 36 439.195 36.364V32.64H440.805V43H439.195V41.838C438.934 42.2113 438.57 42.5193 438.103 42.762C437.646 43.0047 437.119 43.126 436.521 43.126C435.849 43.126 435.233 42.958 434.673 42.622C434.123 42.2767 433.684 41.8007 433.357 41.194C433.04 40.578 432.881 39.8827 432.881 39.108ZM439.195 39.136C439.195 38.604 439.083 38.142 438.859 37.75C438.645 37.358 438.36 37.0593 438.005 36.854C437.651 36.6487 437.268 36.546 436.857 36.546C436.447 36.546 436.064 36.6487 435.709 36.854C435.355 37.05 435.065 37.344 434.841 37.736C434.627 38.1187 434.519 38.576 434.519 39.108C434.519 39.64 434.627 40.1067 434.841 40.508C435.065 40.9093 435.355 41.2173 435.709 41.432C436.073 41.6373 436.456 41.74 436.857 41.74C437.268 41.74 437.651 41.6373 438.005 41.432C438.36 41.2267 438.645 40.928 438.859 40.536C439.083 40.1347 439.195 39.668 439.195 39.136ZM442.37 39.108C442.37 38.3333 442.528 37.6473 442.846 37.05C443.172 36.4527 443.611 35.9907 444.162 35.664C444.722 35.328 445.338 35.16 446.01 35.16C446.616 35.16 447.144 35.2813 447.592 35.524C448.049 35.7573 448.413 36.0513 448.684 36.406V35.286H450.294V43H448.684V41.852C448.413 42.216 448.044 42.5193 447.578 42.762C447.111 43.0047 446.579 43.126 445.982 43.126C445.319 43.126 444.712 42.958 444.162 42.622C443.611 42.2767 443.172 41.8007 442.846 41.194C442.528 40.578 442.37 39.8827 442.37 39.108ZM448.684 39.136C448.684 38.604 448.572 38.142 448.348 37.75C448.133 37.358 447.848 37.0593 447.494 36.854C447.139 36.6487 446.756 36.546 446.346 36.546C445.935 36.546 445.552 36.6487 445.198 36.854C444.843 37.05 444.554 37.344 444.33 37.736C444.115 38.1187 444.008 38.576 444.008 39.108C444.008 39.64 444.115 40.1067 444.33 40.508C444.554 40.9093 444.843 41.2173 445.198 41.432C445.562 41.6373 445.944 41.74 446.346 41.74C446.756 41.74 447.139 41.6373 447.494 41.432C447.848 41.2267 448.133 40.928 448.348 40.536C448.572 40.1347 448.684 39.668 448.684 39.136ZM453.202 34.264C452.913 34.264 452.67 34.166 452.474 33.97C452.278 33.774 452.18 33.5313 452.18 33.242C452.18 32.9527 452.278 32.71 452.474 32.514C452.67 32.318 452.913 32.22 453.202 32.22C453.482 32.22 453.72 32.318 453.916 32.514C454.112 32.71 454.21 32.9527 454.21 33.242C454.21 33.5313 454.112 33.774 453.916 33.97C453.72 34.166 453.482 34.264 453.202 34.264ZM453.986 44.512C453.986 45.268 453.795 45.814 453.412 46.15C453.039 46.4953 452.493 46.668 451.774 46.668H450.948V45.324H451.494C451.821 45.324 452.049 45.2587 452.18 45.128C452.32 45.0067 452.39 44.8013 452.39 44.512V35.286H453.986V44.512ZM463.067 35.286V43H461.471V42.09C461.219 42.4073 460.888 42.6593 460.477 42.846C460.076 43.0233 459.647 43.112 459.189 43.112C458.583 43.112 458.037 42.986 457.551 42.734C457.075 42.482 456.697 42.1087 456.417 41.614C456.147 41.1193 456.011 40.522 456.011 39.822V35.286H457.593V39.584C457.593 40.2747 457.766 40.8067 458.111 41.18C458.457 41.544 458.928 41.726 459.525 41.726C460.123 41.726 460.594 41.544 460.939 41.18C461.294 40.8067 461.471 40.2747 461.471 39.584V35.286H463.067ZM461.163 33.004C461.163 33.4613 461.009 33.83 460.701 34.11C460.403 34.39 460.029 34.53 459.581 34.53C459.143 34.53 458.769 34.39 458.461 34.11C458.163 33.83 458.013 33.4613 458.013 33.004C458.013 32.5373 458.163 32.164 458.461 31.884C458.769 31.604 459.143 31.464 459.581 31.464C460.029 31.464 460.403 31.604 460.701 31.884C461.009 32.164 461.163 32.5373 461.163 33.004ZM460.267 32.99C460.267 32.7753 460.202 32.6027 460.071 32.472C459.941 32.3413 459.777 32.276 459.581 32.276C459.395 32.276 459.236 32.3413 459.105 32.472C458.975 32.6027 458.909 32.7753 458.909 32.99C458.909 33.1953 458.975 33.368 459.105 33.508C459.236 33.6387 459.395 33.704 459.581 33.704C459.777 33.704 459.941 33.6387 460.071 33.508C460.202 33.368 460.267 33.1953 460.267 32.99Z" fill="#A4BFCB"/>
<path opacity="0.75" d="M482.044 43H480.448L475.646 35.734V43H474.05V33.256H475.646L480.448 40.508V33.256H482.044V43ZM483.608 39.108C483.608 38.3333 483.767 37.6473 484.084 37.05C484.411 36.4527 484.849 35.9907 485.4 35.664C485.96 35.328 486.576 35.16 487.248 35.16C487.855 35.16 488.382 35.2813 488.83 35.524C489.287 35.7573 489.651 36.0513 489.922 36.406V35.286H491.532V43H489.922V41.852C489.651 42.216 489.283 42.5193 488.816 42.762C488.349 43.0047 487.817 43.126 487.22 43.126C486.557 43.126 485.951 42.958 485.4 42.622C484.849 42.2767 484.411 41.8007 484.084 41.194C483.767 40.578 483.608 39.8827 483.608 39.108ZM489.922 39.136C489.922 38.604 489.81 38.142 489.586 37.75C489.371 37.358 489.087 37.0593 488.732 36.854C488.377 36.6487 487.995 36.546 487.584 36.546C487.173 36.546 486.791 36.6487 486.436 36.854C486.081 37.05 485.792 37.344 485.568 37.736C485.353 38.1187 485.246 38.576 485.246 39.108C485.246 39.64 485.353 40.1067 485.568 40.508C485.792 40.9093 486.081 41.2173 486.436 41.432C486.8 41.6373 487.183 41.74 487.584 41.74C487.995 41.74 488.377 41.6373 488.732 41.432C489.087 41.2267 489.371 40.928 489.586 40.536C489.81 40.1347 489.922 39.668 489.922 39.136ZM496.428 43.126C495.821 43.126 495.275 43.0187 494.79 42.804C494.314 42.58 493.936 42.2813 493.656 41.908C493.376 41.5253 493.227 41.1007 493.208 40.634H494.86C494.888 40.9607 495.042 41.236 495.322 41.46C495.611 41.6747 495.971 41.782 496.4 41.782C496.848 41.782 497.193 41.698 497.436 41.53C497.688 41.3527 497.814 41.1287 497.814 40.858C497.814 40.5687 497.674 40.354 497.394 40.214C497.123 40.074 496.689 39.92 496.092 39.752C495.513 39.5933 495.042 39.4393 494.678 39.29C494.314 39.1407 493.997 38.912 493.726 38.604C493.465 38.296 493.334 37.89 493.334 37.386C493.334 36.9753 493.455 36.602 493.698 36.266C493.941 35.9207 494.286 35.65 494.734 35.454C495.191 35.258 495.714 35.16 496.302 35.16C497.179 35.16 497.884 35.384 498.416 35.832C498.957 36.2707 499.247 36.8727 499.284 37.638H497.688C497.66 37.2927 497.52 37.0173 497.268 36.812C497.016 36.6067 496.675 36.504 496.246 36.504C495.826 36.504 495.504 36.5833 495.28 36.742C495.056 36.9007 494.944 37.1107 494.944 37.372C494.944 37.5773 495.019 37.75 495.168 37.89C495.317 38.03 495.499 38.142 495.714 38.226C495.929 38.3007 496.246 38.3987 496.666 38.52C497.226 38.6693 497.683 38.8233 498.038 38.982C498.402 39.1313 498.715 39.3553 498.976 39.654C499.237 39.9527 499.373 40.3493 499.382 40.844C499.382 41.2827 499.261 41.6747 499.018 42.02C498.775 42.3653 498.43 42.636 497.982 42.832C497.543 43.028 497.025 43.126 496.428 43.126ZM502.969 36.588V40.858C502.969 41.1473 503.034 41.3573 503.165 41.488C503.305 41.6093 503.538 41.67 503.865 41.67H504.845V43H503.585C502.866 43 502.315 42.832 501.933 42.496C501.55 42.16 501.359 41.614 501.359 40.858V36.588H500.449V35.286H501.359V33.368H502.969V35.286H504.845V36.588H502.969ZM505.784 39.108C505.784 38.3333 505.942 37.6473 506.26 37.05C506.586 36.4527 507.025 35.9907 507.576 35.664C508.136 35.328 508.752 35.16 509.424 35.16C510.03 35.16 510.558 35.2813 511.006 35.524C511.463 35.7573 511.827 36.0513 512.098 36.406V35.286H513.708V43H512.098V41.852C511.827 42.216 511.458 42.5193 510.992 42.762C510.525 43.0047 509.993 43.126 509.396 43.126C508.733 43.126 508.126 42.958 507.576 42.622C507.025 42.2767 506.586 41.8007 506.26 41.194C505.942 40.578 505.784 39.8827 505.784 39.108ZM512.098 39.136C512.098 38.604 511.986 38.142 511.762 37.75C511.547 37.358 511.262 37.0593 510.908 36.854C510.553 36.6487 510.17 36.546 509.76 36.546C509.349 36.546 508.966 36.6487 508.612 36.854C508.257 37.05 507.968 37.344 507.744 37.736C507.529 38.1187 507.422 38.576 507.422 39.108C507.422 39.64 507.529 40.1067 507.744 40.508C507.968 40.9093 508.257 41.2173 508.612 41.432C508.976 41.6373 509.358 41.74 509.76 41.74C510.17 41.74 510.553 41.6373 510.908 41.432C511.262 41.2267 511.547 40.928 511.762 40.536C511.986 40.1347 512.098 39.668 512.098 39.136ZM518.786 41.572L520.97 35.286H522.664L519.724 43H517.82L514.894 35.286H516.602L518.786 41.572ZM530.94 38.954C530.94 39.2433 530.922 39.5047 530.884 39.738H524.99C525.037 40.354 525.266 40.8487 525.676 41.222C526.087 41.5953 526.591 41.782 527.188 41.782C528.047 41.782 528.654 41.4227 529.008 40.704H530.73C530.497 41.4133 530.072 41.9967 529.456 42.454C528.85 42.902 528.094 43.126 527.188 43.126C526.451 43.126 525.788 42.9627 525.2 42.636C524.622 42.3 524.164 41.8333 523.828 41.236C523.502 40.6293 523.338 39.9293 523.338 39.136C523.338 38.3427 523.497 37.6473 523.814 37.05C524.141 36.4433 524.594 35.9767 525.172 35.65C525.76 35.3233 526.432 35.16 527.188 35.16C527.916 35.16 528.565 35.3187 529.134 35.636C529.704 35.9533 530.147 36.4013 530.464 36.98C530.782 37.5493 530.94 38.2073 530.94 38.954ZM529.274 38.45C529.265 37.862 529.055 37.3907 528.644 37.036C528.234 36.6813 527.725 36.504 527.118 36.504C526.568 36.504 526.096 36.6813 525.704 37.036C525.312 37.3813 525.079 37.8527 525.004 38.45H529.274ZM536.403 35.16C537.01 35.16 537.551 35.286 538.027 35.538C538.512 35.79 538.89 36.1633 539.161 36.658C539.432 37.1527 539.567 37.75 539.567 38.45V43H537.985V38.688C537.985 37.9973 537.812 37.47 537.467 37.106C537.122 36.7327 536.65 36.546 536.053 36.546C535.456 36.546 534.98 36.7327 534.625 37.106C534.28 37.47 534.107 37.9973 534.107 38.688V43H532.511V35.286H534.107V36.168C534.368 35.8507 534.7 35.6033 535.101 35.426C535.512 35.2487 535.946 35.16 536.403 35.16ZM543.199 35.286V43H541.603V35.286H543.199ZM543.843 33.214L540.749 34.74V33.564L543.843 31.856V33.214ZM548.399 39.136C548.399 38.3427 548.558 37.6473 548.875 37.05C549.202 36.4433 549.65 35.9767 550.219 35.65C550.788 35.3233 551.442 35.16 552.179 35.16C553.112 35.16 553.882 35.384 554.489 35.832C555.105 36.2707 555.52 36.9007 555.735 37.722H554.013C553.873 37.3393 553.649 37.0407 553.341 36.826C553.033 36.6113 552.646 36.504 552.179 36.504C551.526 36.504 551.003 36.7373 550.611 37.204C550.228 37.6613 550.037 38.3053 550.037 39.136C550.037 39.9667 550.228 40.6153 550.611 41.082C551.003 41.5487 551.526 41.782 552.179 41.782C553.103 41.782 553.714 41.376 554.013 40.564H555.735C555.511 41.348 555.091 41.9733 554.475 42.44C553.859 42.8973 553.094 43.126 552.179 43.126C551.442 43.126 550.788 42.9627 550.219 42.636C549.65 42.3 549.202 41.8333 548.875 41.236C548.558 40.6293 548.399 39.9293 548.399 39.136ZM560.671 43.126C559.943 43.126 559.285 42.9627 558.697 42.636C558.109 42.3 557.647 41.8333 557.311 41.236C556.975 40.6293 556.807 39.9293 556.807 39.136C556.807 38.352 556.98 37.6567 557.325 37.05C557.671 36.4433 558.142 35.9767 558.739 35.65C559.337 35.3233 560.004 35.16 560.741 35.16C561.479 35.16 562.146 35.3233 562.743 35.65C563.341 35.9767 563.812 36.4433 564.157 37.05C564.503 37.6567 564.675 38.352 564.675 39.136C564.675 39.92 564.498 40.6153 564.143 41.222C563.789 41.8287 563.303 42.3 562.687 42.636C562.081 42.9627 561.409 43.126 560.671 43.126ZM560.671 41.74C561.082 41.74 561.465 41.642 561.819 41.446C562.183 41.25 562.477 40.956 562.701 40.564C562.925 40.172 563.037 39.696 563.037 39.136C563.037 38.576 562.93 38.1047 562.715 37.722C562.501 37.33 562.216 37.036 561.861 36.84C561.507 36.644 561.124 36.546 560.713 36.546C560.303 36.546 559.92 36.644 559.565 36.84C559.22 37.036 558.945 37.33 558.739 37.722C558.534 38.1047 558.431 38.576 558.431 39.136C558.431 39.9667 558.641 40.6107 559.061 41.068C559.491 41.516 560.027 41.74 560.671 41.74ZM569.599 43.126C568.871 43.126 568.213 42.9627 567.625 42.636C567.037 42.3 566.575 41.8333 566.239 41.236C565.903 40.6293 565.735 39.9293 565.735 39.136C565.735 38.352 565.908 37.6567 566.253 37.05C566.598 36.4433 567.07 35.9767 567.667 35.65C568.264 35.3233 568.932 35.16 569.669 35.16C570.406 35.16 571.074 35.3233 571.671 35.65C572.268 35.9767 572.74 36.4433 573.085 37.05C573.43 37.6567 573.603 38.352 573.603 39.136C573.603 39.92 573.426 40.6153 573.071 41.222C572.716 41.8287 572.231 42.3 571.615 42.636C571.008 42.9627 570.336 43.126 569.599 43.126ZM569.599 41.74C570.01 41.74 570.392 41.642 570.747 41.446C571.111 41.25 571.405 40.956 571.629 40.564C571.853 40.172 571.965 39.696 571.965 39.136C571.965 38.576 571.858 38.1047 571.643 37.722C571.428 37.33 571.144 37.036 570.789 36.84C570.434 36.644 570.052 36.546 569.641 36.546C569.23 36.546 568.848 36.644 568.493 36.84C568.148 37.036 567.872 37.33 567.667 37.722C567.462 38.1047 567.359 38.576 567.359 39.136C567.359 39.9667 567.569 40.6107 567.989 41.068C568.418 41.516 568.955 41.74 569.599 41.74ZM578.233 39.15L581.789 43H579.633L576.777 39.682V43H575.181V32.64H576.777V38.66L579.577 35.286H581.789L578.233 39.15ZM583.745 34.264C583.455 34.264 583.213 34.166 583.017 33.97C582.821 33.774 582.723 33.5313 582.723 33.242C582.723 32.9527 582.821 32.71 583.017 32.514C583.213 32.318 583.455 32.22 583.745 32.22C584.025 32.22 584.263 32.318 584.459 32.514C584.655 32.71 584.753 32.9527 584.753 33.242C584.753 33.5313 584.655 33.774 584.459 33.97C584.263 34.166 584.025 34.264 583.745 34.264ZM584.529 35.286V43H582.933V35.286H584.529ZM593.694 38.954C593.694 39.2433 593.676 39.5047 593.638 39.738H587.744C587.791 40.354 588.02 40.8487 588.43 41.222C588.841 41.5953 589.345 41.782 589.942 41.782C590.801 41.782 591.408 41.4227 591.762 40.704H593.484C593.251 41.4133 592.826 41.9967 592.21 42.454C591.604 42.902 590.848 43.126 589.942 43.126C589.205 43.126 588.542 42.9627 587.954 42.636C587.376 42.3 586.918 41.8333 586.582 41.236C586.256 40.6293 586.092 39.9293 586.092 39.136C586.092 38.3427 586.251 37.6473 586.568 37.05C586.895 36.4433 587.348 35.9767 587.926 35.65C588.514 35.3233 589.186 35.16 589.942 35.16C590.67 35.16 591.319 35.3187 591.888 35.636C592.458 35.9533 592.901 36.4013 593.218 36.98C593.536 37.5493 593.694 38.2073 593.694 38.954ZM592.028 38.45C592.019 37.862 591.809 37.3907 591.398 37.036C590.988 36.6813 590.479 36.504 589.872 36.504C589.322 36.504 588.85 36.6813 588.458 37.036C588.066 37.3813 587.833 37.8527 587.758 38.45H592.028ZM598.065 43.126C597.458 43.126 596.912 43.0187 596.427 42.804C595.951 42.58 595.573 42.2813 595.293 41.908C595.013 41.5253 594.864 41.1007 594.845 40.634H596.497C596.525 40.9607 596.679 41.236 596.959 41.46C597.248 41.6747 597.608 41.782 598.037 41.782C598.485 41.782 598.83 41.698 599.073 41.53C599.325 41.3527 599.451 41.1287 599.451 40.858C599.451 40.5687 599.311 40.354 599.031 40.214C598.76 40.074 598.326 39.92 597.729 39.752C597.15 39.5933 596.679 39.4393 596.315 39.29C595.951 39.1407 595.634 38.912 595.363 38.604C595.102 38.296 594.971 37.89 594.971 37.386C594.971 36.9753 595.092 36.602 595.335 36.266C595.578 35.9207 595.923 35.65 596.371 35.454C596.828 35.258 597.351 35.16 597.939 35.16C598.816 35.16 599.521 35.384 600.053 35.832C600.594 36.2707 600.884 36.8727 600.921 37.638H599.325C599.297 37.2927 599.157 37.0173 598.905 36.812C598.653 36.6067 598.312 36.504 597.883 36.504C597.463 36.504 597.141 36.5833 596.917 36.742C596.693 36.9007 596.581 37.1107 596.581 37.372C596.581 37.5773 596.656 37.75 596.805 37.89C596.954 38.03 597.136 38.142 597.351 38.226C597.566 38.3007 597.883 38.3987 598.303 38.52C598.863 38.6693 599.32 38.8233 599.675 38.982C600.039 39.1313 600.352 39.3553 600.613 39.654C600.874 39.9527 601.01 40.3493 601.019 40.844C601.019 41.2827 600.898 41.6747 600.655 42.02C600.412 42.3653 600.067 42.636 599.619 42.832C599.18 43.028 598.662 43.126 598.065 43.126Z" fill="#A4BFCB"/>
</svg>
