<svg width="20" height="20" viewBox="0 0 20 20" fill="none" xmlns="http://www.w3.org/2000/svg">
<path d="M3.69238 0.368029C4.11943 0.243276 4.79494 0.207282 5.42773 0.309435C5.99389 0.400888 6.75741 0.641526 7.19823 1.27037L7.28222 1.40123L7.30468 1.44225L8.57519 3.98912L8.67577 4.21862C9.10215 5.3546 8.59955 6.64923 7.4873 7.18737C7.51455 7.26033 7.54796 7.34076 7.58788 7.42858C7.73507 7.75228 7.94504 8.11571 8.18847 8.48522C8.67276 9.22031 9.24734 9.91688 9.60253 10.286C9.97135 10.6411 10.6686 11.2162 11.4043 11.701C11.7738 11.9445 12.1373 12.1555 12.4609 12.3026C12.5623 12.3487 12.6548 12.3836 12.7363 12.413L12.7471 12.3924C13.3521 11.2547 14.7545 10.7995 15.9121 11.3768L18.5566 12.6971L18.5976 12.7186C19.3257 13.1405 19.594 13.97 19.6914 14.5741C19.7917 15.1966 19.7555 15.8593 19.6357 16.287C19.6339 16.294 19.6339 16.3015 19.6318 16.3085C19.2594 17.5781 18.4112 18.5405 17.4443 19.1249L17.25 19.2362C16.4394 19.6773 15.542 19.7826 14.667 19.7411C13.796 19.6997 12.8902 19.5093 12.0351 19.3075C12.0125 19.3021 11.9898 19.2954 11.9678 19.288C9.42872 18.4333 7.14259 16.9155 5.16405 14.8348C3.08384 12.8566 1.56637 10.5707 0.711906 8.03209C0.704547 8.01021 0.697686 7.98815 0.692375 7.96569C0.490557 7.11069 0.300189 6.20487 0.258781 5.33385C0.217199 4.45883 0.322522 3.56147 0.763664 2.75084C1.33274 1.70499 2.33739 0.764176 3.69238 0.368029ZM5.18847 1.7899C4.72875 1.71569 4.28466 1.75842 4.11327 1.80846C3.18755 2.07911 2.48357 2.72787 2.08105 3.46764C1.8176 3.95169 1.72273 4.54505 1.75683 5.26256C1.79065 5.97409 1.94728 6.7514 2.14355 7.5858C2.86681 9.71724 4.11931 11.6744 5.85644 13.4139L6.21191 13.7606L6.23925 13.788C8.06324 15.7097 10.1389 17.0825 12.4121 17.8544C13.2476 18.0509 14.0259 18.2092 14.7383 18.243C15.4557 18.2771 16.0492 18.1822 16.5332 17.9188C17.2722 17.5167 17.9194 16.8133 18.1914 15.8876C18.2415 15.7158 18.284 15.2717 18.21 14.8124C18.1329 14.3347 17.9735 14.098 17.8535 14.0223L15.2422 12.7186C14.817 12.5067 14.2969 12.6724 14.0713 13.0965L14.0703 13.0975C13.9956 13.2375 13.9326 13.3622 13.8877 13.451C13.8653 13.4953 13.8469 13.5306 13.835 13.5546C13.8291 13.5664 13.8252 13.576 13.8223 13.5819C13.8209 13.5847 13.819 13.5864 13.8184 13.5878V13.5897C13.6918 13.8486 13.4278 14.0123 13.1396 14.0106C12.7025 14.0078 12.2432 13.8507 11.8408 13.6678C11.4223 13.4776 10.9877 13.2232 10.5791 12.954C9.76439 12.4171 8.98799 11.779 8.55077 11.3563C8.54483 11.3506 8.53895 11.3447 8.5332 11.3387C8.11035 10.9014 7.47321 10.125 6.93652 9.31041C6.66745 8.902 6.41287 8.46796 6.22265 8.04967C6.03979 7.64748 5.88221 7.18855 5.8789 6.75182C5.87665 6.44548 6.06127 6.16783 6.34472 6.05162H6.34667C6.34796 6.05109 6.34994 6.04976 6.35253 6.04869C6.35807 6.0464 6.36695 6.04252 6.37792 6.03795C6.4001 6.02872 6.4327 6.01523 6.47363 5.99791C6.55644 5.96286 6.67353 5.91275 6.80761 5.85338L6.88964 5.81237C7.28453 5.58535 7.44368 5.08013 7.23339 4.65904L5.97851 2.14635C5.90259 2.0266 5.66605 1.86703 5.18847 1.7899ZM14.8633 7.54674C14.8633 6.15389 13.7328 5.02428 12.3398 5.02428C11.9259 5.02408 11.59 4.68826 11.5898 4.27428C11.5898 3.86019 11.9258 3.52448 12.3398 3.52428C14.5612 3.52428 16.3633 5.3254 16.3633 7.54674C16.3632 7.96081 16.0273 8.29658 15.6133 8.29674C15.1991 8.29674 14.8633 7.96091 14.8633 7.54674ZM18.1357 7.54674C18.1357 4.34577 15.541 1.75182 12.3398 1.75182C11.9259 1.75162 11.5901 1.41573 11.5898 1.00182C11.5898 0.587728 11.9258 0.252018 12.3398 0.251818C16.3694 0.251818 19.6357 3.51728 19.6357 7.54674C19.6357 7.96091 19.2999 8.29674 18.8857 8.29674C18.4716 8.29674 18.1358 7.96091 18.1357 7.54674Z" fill="#6094F8"/>
</svg>
