<svg width="48" height="48" viewBox="0 0 48 48" fill="none" xmlns="http://www.w3.org/2000/svg">
<path d="M32.55 19.9732C32.325 19.1607 31.7625 18.5804 30.975 18.3482C29.625 18 23.8875 18 23.8875 18C23.8875 18 18.2625 18 16.8 18.3482C16.0125 18.5804 15.45 19.1607 15.225 19.9732C15 21.4821 15 24.5 15 24.5C15 24.5 15 27.5179 15.3375 29.0268C15.5625 29.8393 16.125 30.4196 16.9125 30.6518C18.2625 31 24 31 24 31C24 31 29.625 31 31.0875 30.6518C31.875 30.4196 32.4375 29.8393 32.6625 29.0268C33 27.5179 33 24.5 33 24.5C33 24.5 33 21.4821 32.55 19.9732ZM22.2 27.2857V21.7143L26.925 24.5L22.2 27.2857Z" fill="white"/>
</svg>
